<?xml version="1.0" encoding="utf-8" standalone="no"?>
<!DOCTYPE svg PUBLIC "-//W3C//DTD SVG 1.1//EN"
  "http://www.w3.org/Graphics/SVG/1.1/DTD/svg11.dtd">
<svg xmlns:xlink="http://www.w3.org/1999/xlink" width="1152pt" height="504pt" viewBox="0 0 1152 504" xmlns="http://www.w3.org/2000/svg" version="1.1">
 <metadata>
  <rdf:RDF xmlns:dc="http://purl.org/dc/elements/1.1/" xmlns:cc="http://creativecommons.org/ns#" xmlns:rdf="http://www.w3.org/1999/02/22-rdf-syntax-ns#">
   <cc:Work>
    <dc:type rdf:resource="http://purl.org/dc/dcmitype/StillImage"/>
    <dc:date>2025-05-06T00:57:42.974580</dc:date>
    <dc:format>image/svg+xml</dc:format>
    <dc:creator>
     <cc:Agent>
      <dc:title>Matplotlib v3.10.1, https://matplotlib.org/</dc:title>
     </cc:Agent>
    </dc:creator>
   </cc:Work>
  </rdf:RDF>
 </metadata>
 <defs>
  <style type="text/css">*{stroke-linejoin: round; stroke-linecap: butt}</style>
 </defs>
 <g id="figure_1">
  <g id="patch_1">
   <path d="M 0 504 
L 1152 504 
L 1152 0 
L 0 0 
z
" style="fill: #ffffff"/>
  </g>
  <g id="axes_1">
   <g id="patch_2">
    <path d="M 109.008 245.003284 
L 570.6 245.003284 
L 570.6 32.570341 
L 109.008 32.570341 
z
" style="fill: #ffffff"/>
   </g>
   <g id="matplotlib.axis_1">
    <g id="xtick_1">
     <g id="line2d_1">
      <path d="M 171.952364 245.003284 
L 171.952364 32.570341 
" clip-path="url(#pe521ec2a1e)" style="fill: none; stroke-dasharray: 1.85,0.8; stroke-dashoffset: 0; stroke: #b0b0b0; stroke-opacity: 0.7; stroke-width: 0.5"/>
     </g>
     <g id="line2d_2">
      <defs>
       <path id="madbd9119f4" d="M 0 0 
L 0 3.5 
" style="stroke: #000000; stroke-width: 0.8"/>
      </defs>
      <g>
       <use xlink:href="#madbd9119f4" x="171.952364" y="245.003284" style="stroke: #000000; stroke-width: 0.8"/>
      </g>
     </g>
     <g id="text_1">
      <!-- 0.6 -->
      <g transform="translate(160.820176 262.641096) scale(0.14 -0.14)">
       <defs>
        <path id="DejaVuSerif-30" d="M 2034 219 
Q 2513 219 2750 744 
Q 2988 1269 2988 2328 
Q 2988 3391 2750 3916 
Q 2513 4441 2034 4441 
Q 1556 4441 1318 3916 
Q 1081 3391 1081 2328 
Q 1081 1269 1318 744 
Q 1556 219 2034 219 
z
M 2034 -91 
Q 1275 -91 848 546 
Q 422 1184 422 2328 
Q 422 3475 848 4112 
Q 1275 4750 2034 4750 
Q 2797 4750 3222 4112 
Q 3647 3475 3647 2328 
Q 3647 1184 3222 546 
Q 2797 -91 2034 -91 
z
" transform="scale(0.015625)"/>
        <path id="DejaVuSerif-2e" d="M 603 325 
Q 603 500 722 622 
Q 841 744 1019 744 
Q 1191 744 1312 622 
Q 1434 500 1434 325 
Q 1434 153 1312 31 
Q 1191 -91 1019 -91 
Q 841 -91 722 29 
Q 603 150 603 325 
z
" transform="scale(0.015625)"/>
        <path id="DejaVuSerif-36" d="M 2094 219 
Q 2534 219 2771 542 
Q 3009 866 3009 1472 
Q 3009 2078 2771 2401 
Q 2534 2725 2094 2725 
Q 1647 2725 1412 2412 
Q 1178 2100 1178 1509 
Q 1178 888 1415 553 
Q 1653 219 2094 219 
z
M 1075 2569 
Q 1288 2803 1556 2918 
Q 1825 3034 2163 3034 
Q 2859 3034 3264 2615 
Q 3669 2197 3669 1472 
Q 3669 763 3233 336 
Q 2797 -91 2069 -91 
Q 1278 -91 853 498 
Q 428 1088 428 2181 
Q 428 3406 931 4078 
Q 1434 4750 2350 4750 
Q 2597 4750 2869 4703 
Q 3141 4656 3425 4563 
L 3425 3794 
L 3072 3794 
Q 3034 4109 2831 4275 
Q 2628 4441 2284 4441 
Q 1678 4441 1381 3981 
Q 1084 3522 1075 2569 
z
" transform="scale(0.015625)"/>
       </defs>
       <use xlink:href="#DejaVuSerif-30"/>
       <use xlink:href="#DejaVuSerif-2e" transform="translate(63.623047 0)"/>
       <use xlink:href="#DejaVuSerif-36" transform="translate(95.410156 0)"/>
      </g>
     </g>
    </g>
    <g id="xtick_2">
     <g id="line2d_3">
      <path d="M 255.878182 245.003284 
L 255.878182 32.570341 
" clip-path="url(#pe521ec2a1e)" style="fill: none; stroke-dasharray: 1.85,0.8; stroke-dashoffset: 0; stroke: #b0b0b0; stroke-opacity: 0.7; stroke-width: 0.5"/>
     </g>
     <g id="line2d_4">
      <g>
       <use xlink:href="#madbd9119f4" x="255.878182" y="245.003284" style="stroke: #000000; stroke-width: 0.8"/>
      </g>
     </g>
     <g id="text_2">
      <!-- 0.8 -->
      <g transform="translate(244.745994 262.641096) scale(0.14 -0.14)">
       <defs>
        <path id="DejaVuSerif-38" d="M 2981 1275 
Q 2981 1775 2732 2051 
Q 2484 2328 2034 2328 
Q 1584 2328 1336 2051 
Q 1088 1775 1088 1275 
Q 1088 772 1336 495 
Q 1584 219 2034 219 
Q 2484 219 2732 495 
Q 2981 772 2981 1275 
z
M 2853 3541 
Q 2853 3966 2637 4203 
Q 2422 4441 2034 4441 
Q 1650 4441 1433 4203 
Q 1216 3966 1216 3541 
Q 1216 3113 1433 2875 
Q 1650 2638 2034 2638 
Q 2422 2638 2637 2875 
Q 2853 3113 2853 3541 
z
M 2516 2484 
Q 3047 2413 3344 2092 
Q 3641 1772 3641 1275 
Q 3641 619 3225 264 
Q 2809 -91 2034 -91 
Q 1263 -91 845 264 
Q 428 619 428 1275 
Q 428 1772 725 2092 
Q 1022 2413 1556 2484 
Q 1084 2569 832 2842 
Q 581 3116 581 3541 
Q 581 4103 968 4426 
Q 1356 4750 2034 4750 
Q 2713 4750 3100 4426 
Q 3488 4103 3488 3541 
Q 3488 3116 3236 2842 
Q 2984 2569 2516 2484 
z
" transform="scale(0.015625)"/>
       </defs>
       <use xlink:href="#DejaVuSerif-30"/>
       <use xlink:href="#DejaVuSerif-2e" transform="translate(63.623047 0)"/>
       <use xlink:href="#DejaVuSerif-38" transform="translate(95.410156 0)"/>
      </g>
     </g>
    </g>
    <g id="xtick_3">
     <g id="line2d_5">
      <path d="M 339.804 245.003284 
L 339.804 32.570341 
" clip-path="url(#pe521ec2a1e)" style="fill: none; stroke-dasharray: 1.85,0.8; stroke-dashoffset: 0; stroke: #b0b0b0; stroke-opacity: 0.7; stroke-width: 0.5"/>
     </g>
     <g id="line2d_6">
      <g>
       <use xlink:href="#madbd9119f4" x="339.804" y="245.003284" style="stroke: #000000; stroke-width: 0.8"/>
      </g>
     </g>
     <g id="text_3">
      <!-- 1.0 -->
      <g transform="translate(328.671813 262.641096) scale(0.14 -0.14)">
       <defs>
        <path id="DejaVuSerif-31" d="M 909 0 
L 909 331 
L 1722 331 
L 1722 4213 
L 781 3603 
L 781 4013 
L 1919 4750 
L 2350 4750 
L 2350 331 
L 3163 331 
L 3163 0 
L 909 0 
z
" transform="scale(0.015625)"/>
       </defs>
       <use xlink:href="#DejaVuSerif-31"/>
       <use xlink:href="#DejaVuSerif-2e" transform="translate(63.623047 0)"/>
       <use xlink:href="#DejaVuSerif-30" transform="translate(95.410156 0)"/>
      </g>
     </g>
    </g>
    <g id="xtick_4">
     <g id="line2d_7">
      <path d="M 423.729818 245.003284 
L 423.729818 32.570341 
" clip-path="url(#pe521ec2a1e)" style="fill: none; stroke-dasharray: 1.85,0.8; stroke-dashoffset: 0; stroke: #b0b0b0; stroke-opacity: 0.7; stroke-width: 0.5"/>
     </g>
     <g id="line2d_8">
      <g>
       <use xlink:href="#madbd9119f4" x="423.729818" y="245.003284" style="stroke: #000000; stroke-width: 0.8"/>
      </g>
     </g>
     <g id="text_4">
      <!-- 1.2 -->
      <g transform="translate(412.597631 262.641096) scale(0.14 -0.14)">
       <defs>
        <path id="DejaVuSerif-32" d="M 819 3553 
L 469 3553 
L 469 4384 
Q 803 4563 1142 4656 
Q 1481 4750 1806 4750 
Q 2534 4750 2956 4397 
Q 3378 4044 3378 3438 
Q 3378 2753 2422 1800 
Q 2347 1728 2309 1691 
L 1131 513 
L 3078 513 
L 3078 1088 
L 3444 1088 
L 3444 0 
L 434 0 
L 434 341 
L 1850 1753 
Q 2319 2222 2519 2614 
Q 2719 3006 2719 3438 
Q 2719 3909 2473 4175 
Q 2228 4441 1797 4441 
Q 1350 4441 1106 4219 
Q 863 3997 819 3553 
z
" transform="scale(0.015625)"/>
       </defs>
       <use xlink:href="#DejaVuSerif-31"/>
       <use xlink:href="#DejaVuSerif-2e" transform="translate(63.623047 0)"/>
       <use xlink:href="#DejaVuSerif-32" transform="translate(95.410156 0)"/>
      </g>
     </g>
    </g>
    <g id="xtick_5">
     <g id="line2d_9">
      <path d="M 507.655636 245.003284 
L 507.655636 32.570341 
" clip-path="url(#pe521ec2a1e)" style="fill: none; stroke-dasharray: 1.85,0.8; stroke-dashoffset: 0; stroke: #b0b0b0; stroke-opacity: 0.7; stroke-width: 0.5"/>
     </g>
     <g id="line2d_10">
      <g>
       <use xlink:href="#madbd9119f4" x="507.655636" y="245.003284" style="stroke: #000000; stroke-width: 0.8"/>
      </g>
     </g>
     <g id="text_5">
      <!-- 1.4 -->
      <g transform="translate(496.523449 262.641096) scale(0.14 -0.14)">
       <defs>
        <path id="DejaVuSerif-34" d="M 2234 1581 
L 2234 4063 
L 641 1581 
L 2234 1581 
z
M 3609 0 
L 1484 0 
L 1484 331 
L 2234 331 
L 2234 1247 
L 197 1247 
L 197 1588 
L 2241 4750 
L 2859 4750 
L 2859 1581 
L 3750 1581 
L 3750 1247 
L 2859 1247 
L 2859 331 
L 3609 331 
L 3609 0 
z
" transform="scale(0.015625)"/>
       </defs>
       <use xlink:href="#DejaVuSerif-31"/>
       <use xlink:href="#DejaVuSerif-2e" transform="translate(63.623047 0)"/>
       <use xlink:href="#DejaVuSerif-34" transform="translate(95.410156 0)"/>
      </g>
     </g>
    </g>
    <g id="text_6">
     <!-- Global Buffer (kB) -->
     <g transform="translate(275.244312 280.190471) scale(0.14 -0.14)">
      <defs>
       <path id="DejaVuSerif-47" d="M 4097 3272 
Q 3988 3856 3641 4136 
Q 3294 4416 2675 4416 
Q 1869 4416 1472 3897 
Q 1075 3378 1075 2328 
Q 1075 1300 1484 772 
Q 1894 244 2688 244 
Q 3041 244 3362 331 
Q 3684 419 3975 594 
L 3975 1797 
L 3097 1797 
L 3097 2131 
L 4609 2131 
L 4609 391 
Q 4194 150 3714 29 
Q 3234 -91 2688 -91 
Q 1631 -91 995 570 
Q 359 1231 359 2328 
Q 359 3434 996 4092 
Q 1634 4750 2713 4750 
Q 3113 4750 3539 4658 
Q 3966 4566 4447 4378 
L 4447 3272 
L 4097 3272 
z
" transform="scale(0.015625)"/>
       <path id="DejaVuSerif-6c" d="M 1313 331 
L 1856 331 
L 1856 0 
L 184 0 
L 184 331 
L 738 331 
L 738 4531 
L 184 4531 
L 184 4863 
L 1313 4863 
L 1313 331 
z
" transform="scale(0.015625)"/>
       <path id="DejaVuSerif-6f" d="M 1925 219 
Q 2388 219 2623 584 
Q 2859 950 2859 1663 
Q 2859 2375 2623 2739 
Q 2388 3103 1925 3103 
Q 1463 3103 1227 2739 
Q 991 2375 991 1663 
Q 991 950 1228 584 
Q 1466 219 1925 219 
z
M 1925 -91 
Q 1200 -91 759 389 
Q 319 869 319 1663 
Q 319 2456 758 2934 
Q 1197 3413 1925 3413 
Q 2653 3413 3092 2934 
Q 3531 2456 3531 1663 
Q 3531 869 3092 389 
Q 2653 -91 1925 -91 
z
" transform="scale(0.015625)"/>
       <path id="DejaVuSerif-62" d="M 738 331 
L 738 4531 
L 184 4531 
L 184 4863 
L 1313 4863 
L 1313 2803 
Q 1481 3116 1742 3264 
Q 2003 3413 2388 3413 
Q 3000 3413 3387 2928 
Q 3775 2444 3775 1663 
Q 3775 881 3387 395 
Q 3000 -91 2388 -91 
Q 2003 -91 1742 57 
Q 1481 206 1313 519 
L 1313 0 
L 184 0 
L 184 331 
L 738 331 
z
M 1313 1497 
Q 1313 897 1542 583 
Q 1772 269 2209 269 
Q 2650 269 2876 622 
Q 3103 975 3103 1663 
Q 3103 2353 2876 2703 
Q 2650 3053 2209 3053 
Q 1772 3053 1542 2737 
Q 1313 2422 1313 1825 
L 1313 1497 
z
" transform="scale(0.015625)"/>
       <path id="DejaVuSerif-61" d="M 2547 1044 
L 2547 1747 
L 1806 1747 
Q 1378 1747 1168 1562 
Q 959 1378 959 997 
Q 959 650 1171 447 
Q 1384 244 1747 244 
Q 2106 244 2326 466 
Q 2547 688 2547 1044 
z
M 3122 2075 
L 3122 331 
L 3634 331 
L 3634 0 
L 2547 0 
L 2547 359 
Q 2356 128 2106 18 
Q 1856 -91 1522 -91 
Q 969 -91 644 203 
Q 319 497 319 997 
Q 319 1513 691 1797 
Q 1063 2081 1741 2081 
L 2547 2081 
L 2547 2309 
Q 2547 2688 2317 2895 
Q 2088 3103 1672 3103 
Q 1328 3103 1125 2947 
Q 922 2791 872 2484 
L 575 2484 
L 575 3156 
Q 875 3284 1158 3348 
Q 1441 3413 1709 3413 
Q 2400 3413 2761 3070 
Q 3122 2728 3122 2075 
z
" transform="scale(0.015625)"/>
       <path id="DejaVuSerif-20" transform="scale(0.015625)"/>
       <path id="DejaVuSerif-42" d="M 1581 331 
L 2516 331 
Q 3078 331 3337 575 
Q 3597 819 3597 1350 
Q 3597 1878 3339 2120 
Q 3081 2363 2516 2363 
L 1581 2363 
L 1581 331 
z
M 1581 2694 
L 2375 2694 
Q 2888 2694 3123 2891 
Q 3359 3088 3359 3513 
Q 3359 3941 3123 4136 
Q 2888 4331 2375 4331 
L 1581 4331 
L 1581 2694 
z
M 353 0 
L 353 331 
L 947 331 
L 947 4331 
L 353 4331 
L 353 4666 
L 2656 4666 
Q 3363 4666 3720 4377 
Q 4078 4088 4078 3513 
Q 4078 3097 3829 2850 
Q 3581 2603 3103 2547 
Q 3697 2472 4005 2167 
Q 4313 1863 4313 1350 
Q 4313 656 3875 328 
Q 3438 0 2509 0 
L 353 0 
z
" transform="scale(0.015625)"/>
       <path id="DejaVuSerif-75" d="M 2266 3322 
L 3341 3322 
L 3341 331 
L 3884 331 
L 3884 0 
L 2766 0 
L 2766 588 
Q 2606 256 2353 82 
Q 2100 -91 1766 -91 
Q 1213 -91 952 223 
Q 691 538 691 1209 
L 691 2988 
L 172 2988 
L 172 3322 
L 1269 3322 
L 1269 1388 
Q 1269 781 1417 556 
Q 1566 331 1947 331 
Q 2347 331 2556 625 
Q 2766 919 2766 1478 
L 2766 2988 
L 2266 2988 
L 2266 3322 
z
" transform="scale(0.015625)"/>
       <path id="DejaVuSerif-66" d="M 2753 4078 
L 2450 4078 
Q 2447 4313 2317 4434 
Q 2188 4556 1941 4556 
Q 1619 4556 1487 4379 
Q 1356 4203 1356 3750 
L 1356 3322 
L 2284 3322 
L 2284 2988 
L 1356 2988 
L 1356 331 
L 2094 331 
L 2094 0 
L 231 0 
L 231 331 
L 781 331 
L 781 2988 
L 231 2988 
L 231 3322 
L 781 3322 
L 781 3738 
Q 781 4294 1070 4578 
Q 1359 4863 1919 4863 
Q 2128 4863 2337 4825 
Q 2547 4788 2753 4709 
L 2753 4078 
z
" transform="scale(0.015625)"/>
       <path id="DejaVuSerif-65" d="M 3469 1600 
L 991 1600 
L 991 1575 
Q 991 903 1244 561 
Q 1497 219 1991 219 
Q 2369 219 2611 417 
Q 2853 616 2950 1006 
L 3413 1006 
Q 3275 459 2904 184 
Q 2534 -91 1931 -91 
Q 1203 -91 761 389 
Q 319 869 319 1663 
Q 319 2450 753 2931 
Q 1188 3413 1894 3413 
Q 2647 3413 3050 2948 
Q 3453 2484 3469 1600 
z
M 2791 1931 
Q 2772 2513 2545 2808 
Q 2319 3103 1894 3103 
Q 1497 3103 1269 2806 
Q 1041 2509 991 1931 
L 2791 1931 
z
" transform="scale(0.015625)"/>
       <path id="DejaVuSerif-72" d="M 3059 3328 
L 3059 2497 
L 2728 2497 
Q 2713 2744 2591 2866 
Q 2469 2988 2234 2988 
Q 1809 2988 1582 2694 
Q 1356 2400 1356 1850 
L 1356 331 
L 2022 331 
L 2022 0 
L 263 0 
L 263 331 
L 781 331 
L 781 2994 
L 231 2994 
L 231 3322 
L 1356 3322 
L 1356 2731 
Q 1525 3078 1790 3245 
Q 2056 3413 2438 3413 
Q 2578 3413 2733 3391 
Q 2888 3369 3059 3328 
z
" transform="scale(0.015625)"/>
       <path id="DejaVuSerif-28" d="M 2041 -997 
Q 1281 -656 893 83 
Q 506 822 506 1931 
Q 506 3044 893 3783 
Q 1281 4522 2041 4863 
L 2041 4556 
Q 1559 4225 1350 3623 
Q 1141 3022 1141 1931 
Q 1141 844 1350 242 
Q 1559 -359 2041 -691 
L 2041 -997 
z
" transform="scale(0.015625)"/>
       <path id="DejaVuSerif-6b" d="M 1831 0 
L 219 0 
L 219 331 
L 738 331 
L 738 4531 
L 184 4531 
L 184 4863 
L 1313 4863 
L 1313 1697 
L 2713 2988 
L 2234 2988 
L 2234 3322 
L 3738 3322 
L 3738 2988 
L 3169 2988 
L 2181 2075 
L 3444 331 
L 3922 331 
L 3922 0 
L 2284 0 
L 2284 331 
L 2759 331 
L 1766 1697 
L 1313 1275 
L 1313 331 
L 1831 331 
L 1831 0 
z
" transform="scale(0.015625)"/>
       <path id="DejaVuSerif-29" d="M 453 -997 
L 453 -691 
Q 934 -359 1145 242 
Q 1356 844 1356 1931 
Q 1356 3022 1145 3623 
Q 934 4225 453 4556 
L 453 4863 
Q 1216 4522 1603 3783 
Q 1991 3044 1991 1931 
Q 1991 822 1603 83 
Q 1216 -656 453 -997 
z
" transform="scale(0.015625)"/>
      </defs>
      <use xlink:href="#DejaVuSerif-47"/>
      <use xlink:href="#DejaVuSerif-6c" transform="translate(79.882812 0)"/>
      <use xlink:href="#DejaVuSerif-6f" transform="translate(111.865234 0)"/>
      <use xlink:href="#DejaVuSerif-62" transform="translate(172.070312 0)"/>
      <use xlink:href="#DejaVuSerif-61" transform="translate(236.083984 0)"/>
      <use xlink:href="#DejaVuSerif-6c" transform="translate(295.703125 0)"/>
      <use xlink:href="#DejaVuSerif-20" transform="translate(327.685547 0)"/>
      <use xlink:href="#DejaVuSerif-42" transform="translate(359.472656 0)"/>
      <use xlink:href="#DejaVuSerif-75" transform="translate(432.958984 0)"/>
      <use xlink:href="#DejaVuSerif-66" transform="translate(497.363281 0)"/>
      <use xlink:href="#DejaVuSerif-66" transform="translate(534.375 0)"/>
      <use xlink:href="#DejaVuSerif-65" transform="translate(571.386719 0)"/>
      <use xlink:href="#DejaVuSerif-72" transform="translate(630.566406 0)"/>
      <use xlink:href="#DejaVuSerif-20" transform="translate(678.369141 0)"/>
      <use xlink:href="#DejaVuSerif-28" transform="translate(710.15625 0)"/>
      <use xlink:href="#DejaVuSerif-6b" transform="translate(749.169922 0)"/>
      <use xlink:href="#DejaVuSerif-42" transform="translate(809.765625 0)"/>
      <use xlink:href="#DejaVuSerif-29" transform="translate(883.251953 0)"/>
     </g>
    </g>
   </g>
   <g id="matplotlib.axis_2">
    <g id="ytick_1">
     <g id="line2d_11">
      <path d="M 109.008 243.066467 
L 570.6 243.066467 
" clip-path="url(#pe521ec2a1e)" style="fill: none; stroke-dasharray: 1.85,0.8; stroke-dashoffset: 0; stroke: #b0b0b0; stroke-opacity: 0.7; stroke-width: 0.5"/>
     </g>
     <g id="line2d_12">
      <defs>
       <path id="m539f39c74f" d="M 0 0 
L -3.5 0 
" style="stroke: #000000; stroke-width: 0.8"/>
      </defs>
      <g>
       <use xlink:href="#m539f39c74f" x="109.008" y="243.066467" style="stroke: #000000; stroke-width: 0.8"/>
      </g>
     </g>
     <g id="text_7">
      <!-- 0.084 -->
      <g transform="translate(61.928625 248.385373) scale(0.14 -0.14)">
       <use xlink:href="#DejaVuSerif-30"/>
       <use xlink:href="#DejaVuSerif-2e" transform="translate(63.623047 0)"/>
       <use xlink:href="#DejaVuSerif-30" transform="translate(95.410156 0)"/>
       <use xlink:href="#DejaVuSerif-38" transform="translate(159.033203 0)"/>
       <use xlink:href="#DejaVuSerif-34" transform="translate(222.65625 0)"/>
      </g>
     </g>
    </g>
    <g id="ytick_2">
     <g id="line2d_13">
      <path d="M 109.008 193.924206 
L 570.6 193.924206 
" clip-path="url(#pe521ec2a1e)" style="fill: none; stroke-dasharray: 1.85,0.8; stroke-dashoffset: 0; stroke: #b0b0b0; stroke-opacity: 0.7; stroke-width: 0.5"/>
     </g>
     <g id="line2d_14">
      <g>
       <use xlink:href="#m539f39c74f" x="109.008" y="193.924206" style="stroke: #000000; stroke-width: 0.8"/>
      </g>
     </g>
     <g id="text_8">
      <!-- 0.086 -->
      <g transform="translate(61.928625 199.243112) scale(0.14 -0.14)">
       <use xlink:href="#DejaVuSerif-30"/>
       <use xlink:href="#DejaVuSerif-2e" transform="translate(63.623047 0)"/>
       <use xlink:href="#DejaVuSerif-30" transform="translate(95.410156 0)"/>
       <use xlink:href="#DejaVuSerif-38" transform="translate(159.033203 0)"/>
       <use xlink:href="#DejaVuSerif-36" transform="translate(222.65625 0)"/>
      </g>
     </g>
    </g>
    <g id="ytick_3">
     <g id="line2d_15">
      <path d="M 109.008 144.781944 
L 570.6 144.781944 
" clip-path="url(#pe521ec2a1e)" style="fill: none; stroke-dasharray: 1.85,0.8; stroke-dashoffset: 0; stroke: #b0b0b0; stroke-opacity: 0.7; stroke-width: 0.5"/>
     </g>
     <g id="line2d_16">
      <g>
       <use xlink:href="#m539f39c74f" x="109.008" y="144.781944" style="stroke: #000000; stroke-width: 0.8"/>
      </g>
     </g>
     <g id="text_9">
      <!-- 0.088 -->
      <g transform="translate(61.928625 150.100851) scale(0.14 -0.14)">
       <use xlink:href="#DejaVuSerif-30"/>
       <use xlink:href="#DejaVuSerif-2e" transform="translate(63.623047 0)"/>
       <use xlink:href="#DejaVuSerif-30" transform="translate(95.410156 0)"/>
       <use xlink:href="#DejaVuSerif-38" transform="translate(159.033203 0)"/>
       <use xlink:href="#DejaVuSerif-38" transform="translate(222.65625 0)"/>
      </g>
     </g>
    </g>
    <g id="ytick_4">
     <g id="line2d_17">
      <path d="M 109.008 95.639683 
L 570.6 95.639683 
" clip-path="url(#pe521ec2a1e)" style="fill: none; stroke-dasharray: 1.85,0.8; stroke-dashoffset: 0; stroke: #b0b0b0; stroke-opacity: 0.7; stroke-width: 0.5"/>
     </g>
     <g id="line2d_18">
      <g>
       <use xlink:href="#m539f39c74f" x="109.008" y="95.639683" style="stroke: #000000; stroke-width: 0.8"/>
      </g>
     </g>
     <g id="text_10">
      <!-- 0.090 -->
      <g transform="translate(61.928625 100.958589) scale(0.14 -0.14)">
       <defs>
        <path id="DejaVuSerif-39" d="M 2994 2091 
Q 2784 1856 2512 1740 
Q 2241 1625 1900 1625 
Q 1206 1625 804 2044 
Q 403 2463 403 3188 
Q 403 3897 839 4323 
Q 1275 4750 2003 4750 
Q 2794 4750 3217 4161 
Q 3641 3572 3641 2478 
Q 3641 1253 3137 581 
Q 2634 -91 1722 -91 
Q 1475 -91 1203 -44 
Q 931 3 647 97 
L 647 872 
L 997 872 
Q 1038 556 1241 387 
Q 1444 219 1784 219 
Q 2391 219 2687 676 
Q 2984 1134 2994 2091 
z
M 1978 4441 
Q 1534 4441 1298 4117 
Q 1063 3794 1063 3188 
Q 1063 2581 1298 2256 
Q 1534 1931 1978 1931 
Q 2422 1931 2658 2245 
Q 2894 2559 2894 3150 
Q 2894 3772 2656 4106 
Q 2419 4441 1978 4441 
z
" transform="scale(0.015625)"/>
       </defs>
       <use xlink:href="#DejaVuSerif-30"/>
       <use xlink:href="#DejaVuSerif-2e" transform="translate(63.623047 0)"/>
       <use xlink:href="#DejaVuSerif-30" transform="translate(95.410156 0)"/>
       <use xlink:href="#DejaVuSerif-39" transform="translate(159.033203 0)"/>
       <use xlink:href="#DejaVuSerif-30" transform="translate(222.65625 0)"/>
      </g>
     </g>
    </g>
    <g id="ytick_5">
     <g id="line2d_19">
      <path d="M 109.008 46.497422 
L 570.6 46.497422 
" clip-path="url(#pe521ec2a1e)" style="fill: none; stroke-dasharray: 1.85,0.8; stroke-dashoffset: 0; stroke: #b0b0b0; stroke-opacity: 0.7; stroke-width: 0.5"/>
     </g>
     <g id="line2d_20">
      <g>
       <use xlink:href="#m539f39c74f" x="109.008" y="46.497422" style="stroke: #000000; stroke-width: 0.8"/>
      </g>
     </g>
     <g id="text_11">
      <!-- 0.092 -->
      <g transform="translate(61.928625 51.816328) scale(0.14 -0.14)">
       <use xlink:href="#DejaVuSerif-30"/>
       <use xlink:href="#DejaVuSerif-2e" transform="translate(63.623047 0)"/>
       <use xlink:href="#DejaVuSerif-30" transform="translate(95.410156 0)"/>
       <use xlink:href="#DejaVuSerif-39" transform="translate(159.033203 0)"/>
       <use xlink:href="#DejaVuSerif-32" transform="translate(222.65625 0)"/>
      </g>
     </g>
    </g>
    <g id="text_12">
     <!-- Total Carbon Footprint -->
     <g transform="translate(39.141062 219.983531) rotate(-90) scale(0.14 -0.14)">
      <defs>
       <path id="DejaVuSerif-54" d="M 1222 0 
L 1222 331 
L 1819 331 
L 1819 4294 
L 447 4294 
L 447 3566 
L 63 3566 
L 63 4666 
L 4206 4666 
L 4206 3566 
L 3822 3566 
L 3822 4294 
L 2450 4294 
L 2450 331 
L 3047 331 
L 3047 0 
L 1222 0 
z
" transform="scale(0.015625)"/>
       <path id="DejaVuSerif-74" d="M 691 2988 
L 184 2988 
L 184 3322 
L 691 3322 
L 691 4353 
L 1269 4353 
L 1269 3322 
L 2350 3322 
L 2350 2988 
L 1269 2988 
L 1269 878 
Q 1269 456 1350 337 
Q 1431 219 1650 219 
Q 1875 219 1978 351 
Q 2081 484 2088 781 
L 2522 781 
Q 2497 328 2275 118 
Q 2053 -91 1600 -91 
Q 1103 -91 897 129 
Q 691 350 691 878 
L 691 2988 
z
" transform="scale(0.015625)"/>
       <path id="DejaVuSerif-43" d="M 4513 1234 
Q 4306 581 3820 245 
Q 3334 -91 2591 -91 
Q 2134 -91 1743 65 
Q 1353 222 1050 525 
Q 700 875 529 1320 
Q 359 1766 359 2328 
Q 359 3416 987 4083 
Q 1616 4750 2644 4750 
Q 3025 4750 3456 4650 
Q 3888 4550 4384 4347 
L 4384 3272 
L 4031 3272 
Q 3916 3859 3567 4137 
Q 3219 4416 2591 4416 
Q 1844 4416 1459 3886 
Q 1075 3356 1075 2328 
Q 1075 1303 1459 773 
Q 1844 244 2591 244 
Q 3113 244 3450 492 
Q 3788 741 3938 1234 
L 4513 1234 
z
" transform="scale(0.015625)"/>
       <path id="DejaVuSerif-6e" d="M 263 0 
L 263 331 
L 781 331 
L 781 2988 
L 231 2988 
L 231 3322 
L 1356 3322 
L 1356 2731 
Q 1516 3069 1770 3241 
Q 2025 3413 2363 3413 
Q 2913 3413 3172 3097 
Q 3431 2781 3431 2113 
L 3431 331 
L 3944 331 
L 3944 0 
L 2356 0 
L 2356 331 
L 2853 331 
L 2853 1931 
Q 2853 2541 2703 2767 
Q 2553 2994 2175 2994 
Q 1775 2994 1565 2701 
Q 1356 2409 1356 1850 
L 1356 331 
L 1856 331 
L 1856 0 
L 263 0 
z
" transform="scale(0.015625)"/>
       <path id="DejaVuSerif-46" d="M 353 0 
L 353 331 
L 947 331 
L 947 4331 
L 353 4331 
L 353 4666 
L 4172 4666 
L 4172 3628 
L 3788 3628 
L 3788 4281 
L 1581 4281 
L 1581 2719 
L 3175 2719 
L 3175 3303 
L 3559 3303 
L 3559 1753 
L 3175 1753 
L 3175 2338 
L 1581 2338 
L 1581 331 
L 2328 331 
L 2328 0 
L 353 0 
z
" transform="scale(0.015625)"/>
       <path id="DejaVuSerif-70" d="M 1313 1825 
L 1313 1497 
Q 1313 897 1542 583 
Q 1772 269 2209 269 
Q 2650 269 2876 622 
Q 3103 975 3103 1663 
Q 3103 2353 2876 2703 
Q 2650 3053 2209 3053 
Q 1772 3053 1542 2737 
Q 1313 2422 1313 1825 
z
M 738 2988 
L 184 2988 
L 184 3322 
L 1313 3322 
L 1313 2803 
Q 1481 3116 1742 3264 
Q 2003 3413 2388 3413 
Q 3000 3413 3387 2928 
Q 3775 2444 3775 1663 
Q 3775 881 3387 395 
Q 3000 -91 2388 -91 
Q 2003 -91 1742 57 
Q 1481 206 1313 519 
L 1313 -997 
L 1856 -997 
L 1856 -1331 
L 184 -1331 
L 184 -997 
L 738 -997 
L 738 2988 
z
" transform="scale(0.015625)"/>
       <path id="DejaVuSerif-69" d="M 622 4353 
Q 622 4497 726 4603 
Q 831 4709 978 4709 
Q 1122 4709 1226 4603 
Q 1331 4497 1331 4353 
Q 1331 4206 1228 4103 
Q 1125 4000 978 4000 
Q 831 4000 726 4103 
Q 622 4206 622 4353 
z
M 1356 331 
L 1900 331 
L 1900 0 
L 231 0 
L 231 331 
L 781 331 
L 781 2988 
L 231 2988 
L 231 3322 
L 1356 3322 
L 1356 331 
z
" transform="scale(0.015625)"/>
      </defs>
      <use xlink:href="#DejaVuSerif-54"/>
      <use xlink:href="#DejaVuSerif-6f" transform="translate(58.949219 0)"/>
      <use xlink:href="#DejaVuSerif-74" transform="translate(119.154297 0)"/>
      <use xlink:href="#DejaVuSerif-61" transform="translate(159.339844 0)"/>
      <use xlink:href="#DejaVuSerif-6c" transform="translate(218.958984 0)"/>
      <use xlink:href="#DejaVuSerif-20" transform="translate(250.941406 0)"/>
      <use xlink:href="#DejaVuSerif-43" transform="translate(282.728516 0)"/>
      <use xlink:href="#DejaVuSerif-61" transform="translate(359.242188 0)"/>
      <use xlink:href="#DejaVuSerif-72" transform="translate(418.861328 0)"/>
      <use xlink:href="#DejaVuSerif-62" transform="translate(466.664062 0)"/>
      <use xlink:href="#DejaVuSerif-6f" transform="translate(530.677734 0)"/>
      <use xlink:href="#DejaVuSerif-6e" transform="translate(590.882812 0)"/>
      <use xlink:href="#DejaVuSerif-20" transform="translate(655.287109 0)"/>
      <use xlink:href="#DejaVuSerif-46" transform="translate(687.074219 0)"/>
      <use xlink:href="#DejaVuSerif-6f" transform="translate(750.958984 0)"/>
      <use xlink:href="#DejaVuSerif-6f" transform="translate(811.164062 0)"/>
      <use xlink:href="#DejaVuSerif-74" transform="translate(871.369141 0)"/>
      <use xlink:href="#DejaVuSerif-70" transform="translate(911.554688 0)"/>
      <use xlink:href="#DejaVuSerif-72" transform="translate(975.568359 0)"/>
      <use xlink:href="#DejaVuSerif-69" transform="translate(1023.371094 0)"/>
      <use xlink:href="#DejaVuSerif-6e" transform="translate(1055.353516 0)"/>
      <use xlink:href="#DejaVuSerif-74" transform="translate(1119.757812 0)"/>
     </g>
     <!-- (kg CO₂) -->
     <g transform="translate(54.818 169.097906) rotate(-90) scale(0.14 -0.14)">
      <defs>
       <path id="DejaVuSerif-67" d="M 3359 2988 
L 3359 72 
Q 3359 -644 2965 -1033 
Q 2572 -1422 1844 -1422 
Q 1516 -1422 1216 -1362 
Q 916 -1303 641 -1184 
L 641 -488 
L 941 -488 
Q 997 -813 1206 -963 
Q 1416 -1113 1806 -1113 
Q 2313 -1113 2548 -827 
Q 2784 -541 2784 72 
L 2784 519 
Q 2616 206 2355 57 
Q 2094 -91 1709 -91 
Q 1097 -91 708 395 
Q 319 881 319 1663 
Q 319 2444 706 2928 
Q 1094 3413 1709 3413 
Q 2094 3413 2355 3264 
Q 2616 3116 2784 2803 
L 2784 3322 
L 3909 3322 
L 3909 2988 
L 3359 2988 
z
M 2784 1825 
Q 2784 2422 2554 2737 
Q 2325 3053 1888 3053 
Q 1444 3053 1217 2703 
Q 991 2353 991 1663 
Q 991 975 1217 622 
Q 1444 269 1888 269 
Q 2325 269 2554 583 
Q 2784 897 2784 1497 
L 2784 1825 
z
" transform="scale(0.015625)"/>
       <path id="DejaVuSerif-4f" d="M 2625 244 
Q 3391 244 3781 770 
Q 4172 1297 4172 2328 
Q 4172 3363 3781 3889 
Q 3391 4416 2625 4416 
Q 1856 4416 1465 3889 
Q 1075 3363 1075 2328 
Q 1075 1297 1465 770 
Q 1856 244 2625 244 
z
M 2625 -91 
Q 2150 -91 1751 65 
Q 1353 222 1050 525 
Q 700 875 529 1319 
Q 359 1763 359 2328 
Q 359 2894 529 3339 
Q 700 3784 1050 4134 
Q 1356 4441 1750 4595 
Q 2144 4750 2625 4750 
Q 3641 4750 4266 4084 
Q 4891 3419 4891 2328 
Q 4891 1769 4719 1320 
Q 4547 872 4197 525 
Q 3891 219 3497 64 
Q 3103 -91 2625 -91 
z
" transform="scale(0.015625)"/>
       <path id="DejaVuSerif-2082" d="M 531 1938 
L 313 1938 
L 313 2432 
Q 519 2532 737 2585 
Q 956 2638 1172 2638 
Q 1603 2638 1870 2432 
Q 2138 2226 2138 1901 
Q 2138 1519 1531 976 
L 1472 922 
L 728 251 
L 1931 251 
L 1931 588 
L 2163 588 
L 2163 -24 
L 281 -24 
L 281 210 
L 1172 1004 
Q 1441 1244 1556 1435 
Q 1672 1626 1672 1832 
Q 1672 2097 1520 2252 
Q 1369 2407 1106 2407 
Q 863 2407 716 2288 
Q 569 2169 531 1938 
z
" transform="scale(0.015625)"/>
      </defs>
      <use xlink:href="#DejaVuSerif-28"/>
      <use xlink:href="#DejaVuSerif-6b" transform="translate(39.013672 0)"/>
      <use xlink:href="#DejaVuSerif-67" transform="translate(99.609375 0)"/>
      <use xlink:href="#DejaVuSerif-20" transform="translate(163.623047 0)"/>
      <use xlink:href="#DejaVuSerif-43" transform="translate(195.410156 0)"/>
      <use xlink:href="#DejaVuSerif-4f" transform="translate(271.923828 0)"/>
      <use xlink:href="#DejaVuSerif-2082" transform="translate(353.90625 0)"/>
      <use xlink:href="#DejaVuSerif-29" transform="translate(393.994141 0)"/>
     </g>
    </g>
   </g>
   <g id="line2d_21">
    <path d="M 129.989455 137.287584 
L 156.216273 128.429878 
L 182.443091 118.587031 
L 208.669909 131.732638 
L 234.896727 123.988248 
L 261.123545 179.369579 
L 287.350364 175.10659 
L 313.577182 167.666311 
L 339.804 160.97381 
L 366.030818 235.347241 
L 392.257636 230.384455 
L 418.484455 71.67256 
L 444.711273 65.469488 
L 470.938091 59.26842 
L 497.164909 54.619825 
L 523.391727 48.419631 
L 549.618545 42.226384 
" clip-path="url(#pe521ec2a1e)" style="fill: none; stroke: #003f5c; stroke-width: 4; stroke-linecap: square"/>
    <defs>
     <path id="me6f96acb92" d="M 0 4 
C 1.060812 4 2.078319 3.578535 2.828427 2.828427 
C 3.578535 2.078319 4 1.060812 4 0 
C 4 -1.060812 3.578535 -2.078319 2.828427 -2.828427 
C 2.078319 -3.578535 1.060812 -4 0 -4 
C -1.060812 -4 -2.078319 -3.578535 -2.828427 -2.828427 
C -3.578535 -2.078319 -4 -1.060812 -4 0 
C -4 1.060812 -3.578535 2.078319 -2.828427 2.828427 
C -2.078319 3.578535 -1.060812 4 0 4 
z
" style="stroke: #003f5c"/>
    </defs>
    <g clip-path="url(#pe521ec2a1e)">
     <use xlink:href="#me6f96acb92" x="129.989455" y="137.287584" style="fill: #003f5c; stroke: #003f5c"/>
     <use xlink:href="#me6f96acb92" x="156.216273" y="128.429878" style="fill: #003f5c; stroke: #003f5c"/>
     <use xlink:href="#me6f96acb92" x="182.443091" y="118.587031" style="fill: #003f5c; stroke: #003f5c"/>
     <use xlink:href="#me6f96acb92" x="208.669909" y="131.732638" style="fill: #003f5c; stroke: #003f5c"/>
     <use xlink:href="#me6f96acb92" x="234.896727" y="123.988248" style="fill: #003f5c; stroke: #003f5c"/>
     <use xlink:href="#me6f96acb92" x="261.123545" y="179.369579" style="fill: #003f5c; stroke: #003f5c"/>
     <use xlink:href="#me6f96acb92" x="287.350364" y="175.10659" style="fill: #003f5c; stroke: #003f5c"/>
     <use xlink:href="#me6f96acb92" x="313.577182" y="167.666311" style="fill: #003f5c; stroke: #003f5c"/>
     <use xlink:href="#me6f96acb92" x="339.804" y="160.97381" style="fill: #003f5c; stroke: #003f5c"/>
     <use xlink:href="#me6f96acb92" x="366.030818" y="235.347241" style="fill: #003f5c; stroke: #003f5c"/>
     <use xlink:href="#me6f96acb92" x="392.257636" y="230.384455" style="fill: #003f5c; stroke: #003f5c"/>
     <use xlink:href="#me6f96acb92" x="418.484455" y="71.67256" style="fill: #003f5c; stroke: #003f5c"/>
     <use xlink:href="#me6f96acb92" x="444.711273" y="65.469488" style="fill: #003f5c; stroke: #003f5c"/>
     <use xlink:href="#me6f96acb92" x="470.938091" y="59.26842" style="fill: #003f5c; stroke: #003f5c"/>
     <use xlink:href="#me6f96acb92" x="497.164909" y="54.619825" style="fill: #003f5c; stroke: #003f5c"/>
     <use xlink:href="#me6f96acb92" x="523.391727" y="48.419631" style="fill: #003f5c; stroke: #003f5c"/>
     <use xlink:href="#me6f96acb92" x="549.618545" y="42.226384" style="fill: #003f5c; stroke: #003f5c"/>
    </g>
   </g>
   <g id="patch_3">
    <path d="M 109.008 245.003284 
L 109.008 32.570341 
" style="fill: none; stroke: #000000; stroke-width: 0.8; stroke-linejoin: miter; stroke-linecap: square"/>
   </g>
   <g id="patch_4">
    <path d="M 570.6 245.003284 
L 570.6 32.570341 
" style="fill: none; stroke: #000000; stroke-width: 0.8; stroke-linejoin: miter; stroke-linecap: square"/>
   </g>
   <g id="patch_5">
    <path d="M 109.008 245.003284 
L 570.6 245.003284 
" style="fill: none; stroke: #000000; stroke-width: 0.8; stroke-linejoin: miter; stroke-linecap: square"/>
   </g>
   <g id="patch_6">
    <path d="M 109.008 32.570341 
L 570.6 32.570341 
" style="fill: none; stroke: #000000; stroke-width: 0.8; stroke-linejoin: miter; stroke-linecap: square"/>
   </g>
   <g id="text_13">
    <!-- (a) -->
    <g transform="translate(16.6896 21.96486) scale(0.14 -0.14)">
     <defs>
      <path id="DejaVuSerif-Bold-28" d="M 2694 -997 
Q 1641 -606 1122 122 
Q 603 850 603 1931 
Q 603 3013 1115 3731 
Q 1628 4450 2694 4863 
L 2694 4488 
Q 2200 4188 1983 3598 
Q 1766 3009 1766 1931 
Q 1766 856 1983 267 
Q 2200 -322 2694 -622 
L 2694 -997 
z
" transform="scale(0.015625)"/>
      <path id="DejaVuSerif-Bold-61" d="M 3525 2041 
L 3525 378 
L 4000 378 
L 4000 0 
L 2419 0 
L 2419 422 
Q 2200 159 1931 34 
Q 1663 -91 1319 -91 
Q 809 -91 536 182 
Q 263 456 263 966 
Q 263 1525 655 1803 
Q 1047 2081 1838 2081 
L 2419 2081 
L 2419 2278 
Q 2419 2681 2228 2873 
Q 2038 3066 1638 3066 
Q 1306 3066 1126 2930 
Q 947 2794 872 2484 
L 519 2484 
L 519 3200 
Q 816 3306 1134 3359 
Q 1453 3413 1806 3413 
Q 2697 3413 3111 3081 
Q 3525 2750 3525 2041 
z
M 2419 1044 
L 2419 1709 
L 2003 1709 
Q 1694 1709 1528 1540 
Q 1363 1372 1363 1056 
Q 1363 741 1483 584 
Q 1603 428 1850 428 
Q 2106 428 2262 597 
Q 2419 766 2419 1044 
z
" transform="scale(0.015625)"/>
      <path id="DejaVuSerif-Bold-29" d="M 325 -997 
L 325 -622 
Q 819 -322 1036 267 
Q 1253 856 1253 1931 
Q 1253 3009 1036 3598 
Q 819 4188 325 4488 
L 325 4863 
Q 1391 4450 1905 3731 
Q 2419 3013 2419 1931 
Q 2419 850 1898 122 
Q 1378 -606 325 -997 
z
" transform="scale(0.015625)"/>
     </defs>
     <use xlink:href="#DejaVuSerif-Bold-28"/>
     <use xlink:href="#DejaVuSerif-Bold-61" transform="translate(47.314453 0)"/>
     <use xlink:href="#DejaVuSerif-Bold-29" transform="translate(112.109375 0)"/>
    </g>
   </g>
  </g>
  <g id="axes_2">
   <g id="patch_7">
    <path d="M 910.403667 42.226384 
C 889.898672 42.226384 869.917136 48.757859 853.370969 60.868977 
C 836.824801 72.980095 824.558797 90.052501 818.360479 109.598235 
C 812.162161 129.143968 812.347997 150.165086 818.890904 169.598182 
C 825.433811 189.031277 837.99973 205.884159 854.757429 217.700856 
L 910.403667 138.786852 
z
" style="fill: #174978"/>
   </g>
   <g id="patch_8">
    <path d="M 854.757416 217.700849 
C 867.163115 226.448734 881.458585 232.149227 896.479753 234.338141 
C 911.500921 236.527049 926.828669 235.143323 941.21496 230.299626 
C 955.601252 225.45593 968.644684 217.287389 979.283131 206.459173 
C 989.921578 195.630957 997.858243 182.445158 1002.446853 167.975482 
C 1007.035456 153.505807 1008.147997 138.155942 1005.693854 123.17582 
C 1003.239718 108.195699 997.287377 94.003245 988.321534 81.754146 
C 979.35569 69.505047 967.626515 59.541058 954.089041 52.673486 
C 940.551567 45.805913 925.583496 42.226384 910.403681 42.226384 
L 910.403667 138.786852 
z
" style="fill: #46769b"/>
   </g>
   <g id="matplotlib.axis_3">
    <g id="text_14">
     <!-- Total CF Breakdown -->
     <g transform="translate(827.57775 261.160784) scale(0.16 -0.16)">
      <defs>
       <path id="DejaVuSerif-64" d="M 3359 331 
L 3909 331 
L 3909 0 
L 2784 0 
L 2784 519 
Q 2616 206 2355 57 
Q 2094 -91 1709 -91 
Q 1097 -91 708 395 
Q 319 881 319 1663 
Q 319 2444 706 2928 
Q 1094 3413 1709 3413 
Q 2094 3413 2355 3264 
Q 2616 3116 2784 2803 
L 2784 4531 
L 2241 4531 
L 2241 4863 
L 3359 4863 
L 3359 331 
z
M 2784 1497 
L 2784 1825 
Q 2784 2422 2554 2737 
Q 2325 3053 1888 3053 
Q 1444 3053 1217 2703 
Q 991 2353 991 1663 
Q 991 975 1217 622 
Q 1444 269 1888 269 
Q 2325 269 2554 583 
Q 2784 897 2784 1497 
z
" transform="scale(0.015625)"/>
       <path id="DejaVuSerif-77" d="M 3072 3322 
L 3922 728 
L 4672 2988 
L 4191 2988 
L 4191 3322 
L 5394 3322 
L 5394 2988 
L 5025 2988 
L 4038 0 
L 3559 0 
L 2741 2484 
L 1919 0 
L 1459 0 
L 475 2988 
L 103 2988 
L 103 3322 
L 1606 3322 
L 1606 2988 
L 1069 2988 
L 1813 728 
L 2669 3322 
L 3072 3322 
z
" transform="scale(0.015625)"/>
      </defs>
      <use xlink:href="#DejaVuSerif-54"/>
      <use xlink:href="#DejaVuSerif-6f" transform="translate(58.949219 0)"/>
      <use xlink:href="#DejaVuSerif-74" transform="translate(119.154297 0)"/>
      <use xlink:href="#DejaVuSerif-61" transform="translate(159.339844 0)"/>
      <use xlink:href="#DejaVuSerif-6c" transform="translate(218.958984 0)"/>
      <use xlink:href="#DejaVuSerif-20" transform="translate(250.941406 0)"/>
      <use xlink:href="#DejaVuSerif-43" transform="translate(282.728516 0)"/>
      <use xlink:href="#DejaVuSerif-46" transform="translate(359.242188 0)"/>
      <use xlink:href="#DejaVuSerif-20" transform="translate(428.626953 0)"/>
      <use xlink:href="#DejaVuSerif-42" transform="translate(460.414062 0)"/>
      <use xlink:href="#DejaVuSerif-72" transform="translate(533.900391 0)"/>
      <use xlink:href="#DejaVuSerif-65" transform="translate(581.703125 0)"/>
      <use xlink:href="#DejaVuSerif-61" transform="translate(640.882812 0)"/>
      <use xlink:href="#DejaVuSerif-6b" transform="translate(700.501953 0)"/>
      <use xlink:href="#DejaVuSerif-64" transform="translate(761.097656 0)"/>
      <use xlink:href="#DejaVuSerif-6f" transform="translate(825.111328 0)"/>
      <use xlink:href="#DejaVuSerif-77" transform="translate(885.316406 0)"/>
      <use xlink:href="#DejaVuSerif-6e" transform="translate(970.912109 0)"/>
     </g>
     <!--  -->
     <g transform="translate(910.404 279.077284) scale(0.16 -0.16)"/>
    </g>
   </g>
   <g id="matplotlib.axis_4"/>
   <g id="text_15">
    <!-- Embodied -->
    <g transform="translate(737.58116 110.542499) scale(0.14 -0.14)">
     <defs>
      <path id="DejaVuSerif-45" d="M 353 0 
L 353 331 
L 947 331 
L 947 4331 
L 353 4331 
L 353 4666 
L 4109 4666 
L 4109 3628 
L 3725 3628 
L 3725 4281 
L 1581 4281 
L 1581 2719 
L 3109 2719 
L 3109 3303 
L 3494 3303 
L 3494 1753 
L 3109 1753 
L 3109 2338 
L 1581 2338 
L 1581 384 
L 3775 384 
L 3775 1038 
L 4159 1038 
L 4159 0 
L 353 0 
z
" transform="scale(0.015625)"/>
      <path id="DejaVuSerif-6d" d="M 3316 2675 
Q 3481 3041 3739 3227 
Q 3997 3413 4341 3413 
Q 4863 3413 5119 3089 
Q 5375 2766 5375 2113 
L 5375 331 
L 5894 331 
L 5894 0 
L 4300 0 
L 4300 331 
L 4800 331 
L 4800 2047 
Q 4800 2556 4650 2772 
Q 4500 2988 4153 2988 
Q 3769 2988 3567 2697 
Q 3366 2406 3366 1850 
L 3366 331 
L 3866 331 
L 3866 0 
L 2291 0 
L 2291 331 
L 2791 331 
L 2791 2069 
Q 2791 2566 2641 2777 
Q 2491 2988 2144 2988 
Q 1759 2988 1557 2697 
Q 1356 2406 1356 1850 
L 1356 331 
L 1856 331 
L 1856 0 
L 263 0 
L 263 331 
L 781 331 
L 781 2994 
L 231 2994 
L 231 3322 
L 1356 3322 
L 1356 2731 
Q 1516 3063 1762 3238 
Q 2009 3413 2322 3413 
Q 2709 3413 2968 3220 
Q 3228 3028 3316 2675 
z
" transform="scale(0.015625)"/>
     </defs>
     <use xlink:href="#DejaVuSerif-45"/>
     <use xlink:href="#DejaVuSerif-6d" transform="translate(72.998047 0)"/>
     <use xlink:href="#DejaVuSerif-62" transform="translate(167.822266 0)"/>
     <use xlink:href="#DejaVuSerif-6f" transform="translate(231.835938 0)"/>
     <use xlink:href="#DejaVuSerif-64" transform="translate(292.041016 0)"/>
     <use xlink:href="#DejaVuSerif-69" transform="translate(356.054688 0)"/>
     <use xlink:href="#DejaVuSerif-65" transform="translate(388.037109 0)"/>
     <use xlink:href="#DejaVuSerif-64" transform="translate(447.216797 0)"/>
    </g>
   </g>
   <g id="text_16">
    <!-- 40.2% -->
    <g style="fill: #ffffff" transform="translate(831.478379 125.136807) scale(0.14 -0.14)">
     <defs>
      <path id="DejaVuSerif-Bold-34" d="M 4084 0 
L 1516 0 
L 1516 378 
L 2209 378 
L 2209 1228 
L 263 1228 
L 263 1588 
L 2216 4750 
L 3391 4750 
L 3391 1631 
L 4191 1631 
L 4191 1228 
L 3391 1228 
L 3391 378 
L 4084 378 
L 4084 0 
z
M 2209 1631 
L 2209 3897 
L 819 1631 
L 2209 1631 
z
" transform="scale(0.015625)"/>
      <path id="DejaVuSerif-Bold-30" d="M 2228 275 
Q 2603 275 2742 615 
Q 2881 956 2881 2328 
Q 2881 3691 2742 4037 
Q 2603 4384 2228 4384 
Q 1853 4384 1714 4043 
Q 1575 3703 1575 2328 
Q 1575 956 1714 615 
Q 1853 275 2228 275 
z
M 2228 -91 
Q 1294 -91 797 532 
Q 300 1156 300 2328 
Q 300 3500 797 4125 
Q 1294 4750 2228 4750 
Q 3159 4750 3656 4125 
Q 4153 3500 4153 2328 
Q 4153 1156 3656 532 
Q 3159 -91 2228 -91 
z
" transform="scale(0.015625)"/>
      <path id="DejaVuSerif-Bold-2e" d="M 519 506 
Q 519 750 694 925 
Q 869 1100 1113 1100 
Q 1359 1100 1534 925 
Q 1709 750 1709 506 
Q 1709 259 1534 84 
Q 1359 -91 1113 -91 
Q 869 -91 694 84 
Q 519 259 519 506 
z
" transform="scale(0.015625)"/>
      <path id="DejaVuSerif-Bold-32" d="M 844 3513 
L 469 3513 
L 469 4519 
Q 850 4634 1223 4692 
Q 1597 4750 1978 4750 
Q 2869 4750 3367 4386 
Q 3866 4022 3866 3372 
Q 3866 2909 3591 2542 
Q 3316 2175 2541 1672 
L 1241 819 
L 3450 819 
L 3450 1369 
L 3878 1369 
L 3878 0 
L 428 0 
L 428 763 
L 1119 1241 
Q 2003 1850 2297 2278 
Q 2591 2706 2591 3278 
Q 2591 3819 2367 4101 
Q 2144 4384 1716 4384 
Q 1347 4384 1125 4161 
Q 903 3938 844 3513 
z
" transform="scale(0.015625)"/>
      <path id="DejaVuSerif-Bold-25" d="M 1381 4434 
Q 1181 4434 1093 4217 
Q 1006 4000 1006 3481 
Q 1006 2959 1093 2740 
Q 1181 2522 1381 2522 
Q 1584 2522 1671 2740 
Q 1759 2959 1759 3481 
Q 1759 4000 1671 4217 
Q 1584 4434 1381 4434 
z
M 1381 4750 
Q 1978 4750 2295 4423 
Q 2613 4097 2613 3481 
Q 2613 2866 2295 2537 
Q 1978 2209 1381 2209 
Q 788 2209 470 2537 
Q 153 2866 153 3481 
Q 153 4097 470 4423 
Q 788 4750 1381 4750 
z
M 4231 4750 
L 4769 4750 
L 1850 -91 
L 1313 -91 
L 4231 4750 
z
M 4697 2450 
Q 5294 2450 5609 2123 
Q 5925 1797 5925 1184 
Q 5925 569 5609 239 
Q 5294 -91 4697 -91 
Q 4103 -91 3786 239 
Q 3469 569 3469 1184 
Q 3469 1797 3786 2123 
Q 4103 2450 4697 2450 
z
M 4697 2138 
Q 4494 2138 4406 1920 
Q 4319 1703 4319 1184 
Q 4319 663 4408 444 
Q 4497 225 4697 225 
Q 4900 225 4987 444 
Q 5075 663 5075 1184 
Q 5075 1703 4987 1920 
Q 4900 2138 4697 2138 
z
" transform="scale(0.015625)"/>
     </defs>
     <use xlink:href="#DejaVuSerif-Bold-34"/>
     <use xlink:href="#DejaVuSerif-Bold-30" transform="translate(69.580078 0)"/>
     <use xlink:href="#DejaVuSerif-Bold-2e" transform="translate(139.160156 0)"/>
     <use xlink:href="#DejaVuSerif-Bold-32" transform="translate(173.974609 0)"/>
     <use xlink:href="#DejaVuSerif-Bold-25" transform="translate(243.554688 0)"/>
    </g>
   </g>
   <g id="text_17">
    <!-- Operational -->
    <g transform="translate(1011.651185 174.757421) scale(0.14 -0.14)">
     <use xlink:href="#DejaVuSerif-4f"/>
     <use xlink:href="#DejaVuSerif-70" transform="translate(81.982422 0)"/>
     <use xlink:href="#DejaVuSerif-65" transform="translate(145.996094 0)"/>
     <use xlink:href="#DejaVuSerif-72" transform="translate(205.175781 0)"/>
     <use xlink:href="#DejaVuSerif-61" transform="translate(252.978516 0)"/>
     <use xlink:href="#DejaVuSerif-74" transform="translate(312.597656 0)"/>
     <use xlink:href="#DejaVuSerif-69" transform="translate(352.783203 0)"/>
     <use xlink:href="#DejaVuSerif-6f" transform="translate(384.765625 0)"/>
     <use xlink:href="#DejaVuSerif-6e" transform="translate(444.970703 0)"/>
     <use xlink:href="#DejaVuSerif-61" transform="translate(509.375 0)"/>
     <use xlink:href="#DejaVuSerif-6c" transform="translate(568.994141 0)"/>
    </g>
   </g>
   <g id="text_18">
    <!-- 59.8% -->
    <g style="fill: #ffffff" transform="translate(941.930211 160.163128) scale(0.14 -0.14)">
     <defs>
      <path id="DejaVuSerif-Bold-35" d="M 3609 4666 
L 3609 3847 
L 1113 3847 
L 1113 2822 
Q 1319 2981 1572 3062 
Q 1825 3144 2106 3144 
Q 2969 3144 3469 2708 
Q 3969 2272 3969 1522 
Q 3969 759 3469 334 
Q 2969 -91 2069 -91 
Q 1688 -91 1311 -28 
Q 934 34 525 166 
L 525 1184 
L 900 1184 
Q 919 725 1139 500 
Q 1359 275 1791 275 
Q 2250 275 2472 583 
Q 2694 891 2694 1522 
Q 2694 2144 2476 2451 
Q 2259 2759 1819 2759 
Q 1581 2759 1395 2661 
Q 1209 2563 1050 2356 
L 738 2356 
L 738 4666 
L 3609 4666 
z
" transform="scale(0.015625)"/>
      <path id="DejaVuSerif-Bold-39" d="M 2181 4384 
Q 1859 4384 1723 4111 
Q 1588 3838 1588 3163 
Q 1588 2488 1723 2214 
Q 1859 1941 2181 1941 
Q 2503 1941 2640 2214 
Q 2778 2488 2778 3163 
Q 2778 3838 2640 4111 
Q 2503 4384 2181 4384 
z
M 2878 1900 
Q 2672 1734 2420 1651 
Q 2169 1569 1875 1569 
Q 1163 1569 755 1986 
Q 347 2403 347 3138 
Q 347 3913 803 4331 
Q 1259 4750 2106 4750 
Q 3063 4750 3556 4172 
Q 4050 3594 4050 2478 
Q 4050 1206 3503 557 
Q 2956 -91 1881 -91 
Q 1600 -91 1278 -44 
Q 956 3 588 97 
L 588 922 
L 966 922 
Q 1044 603 1261 439 
Q 1478 275 1825 275 
Q 2375 275 2625 658 
Q 2875 1041 2878 1900 
z
" transform="scale(0.015625)"/>
      <path id="DejaVuSerif-Bold-38" d="M 2975 2484 
Q 3531 2394 3820 2075 
Q 4109 1756 4109 1241 
Q 4109 597 3623 253 
Q 3138 -91 2222 -91 
Q 1306 -91 818 253 
Q 331 597 331 1241 
Q 331 1756 622 2075 
Q 913 2394 1466 2484 
Q 975 2597 731 2861 
Q 488 3125 488 3531 
Q 488 4125 931 4437 
Q 1375 4750 2222 4750 
Q 3066 4750 3511 4437 
Q 3956 4125 3956 3531 
Q 3956 3125 3711 2861 
Q 3466 2597 2975 2484 
z
M 2747 3519 
Q 2747 4013 2628 4198 
Q 2509 4384 2222 4384 
Q 1931 4384 1814 4198 
Q 1697 4013 1697 3519 
Q 1697 3028 1814 2845 
Q 1931 2663 2222 2663 
Q 2513 2663 2630 2845 
Q 2747 3028 2747 3519 
z
M 2869 1294 
Q 2869 1866 2723 2081 
Q 2578 2297 2222 2297 
Q 1863 2297 1719 2081 
Q 1575 1866 1575 1294 
Q 1575 716 1720 495 
Q 1866 275 2222 275 
Q 2575 275 2722 495 
Q 2869 716 2869 1294 
z
" transform="scale(0.015625)"/>
     </defs>
     <use xlink:href="#DejaVuSerif-Bold-35"/>
     <use xlink:href="#DejaVuSerif-Bold-39" transform="translate(69.580078 0)"/>
     <use xlink:href="#DejaVuSerif-Bold-2e" transform="translate(139.160156 0)"/>
     <use xlink:href="#DejaVuSerif-Bold-38" transform="translate(173.974609 0)"/>
     <use xlink:href="#DejaVuSerif-Bold-25" transform="translate(243.554688 0)"/>
    </g>
   </g>
   <g id="text_19">
    <!-- (b) -->
    <g transform="translate(633.4488 21.96486) scale(0.14 -0.14)">
     <defs>
      <path id="DejaVuSerif-Bold-62" d="M 622 378 
L 622 4488 
L 147 4488 
L 147 4863 
L 1728 4863 
L 1728 2900 
Q 1869 3159 2106 3286 
Q 2344 3413 2694 3413 
Q 3403 3413 3811 2945 
Q 4219 2478 4219 1663 
Q 4219 847 3811 378 
Q 3403 -91 2694 -91 
Q 2344 -91 2106 36 
Q 1869 163 1728 422 
L 1728 0 
L 147 0 
L 147 378 
L 622 378 
z
M 1728 1497 
Q 1728 916 1876 656 
Q 2025 397 2356 397 
Q 2697 397 2836 672 
Q 2975 947 2975 1663 
Q 2975 2378 2836 2651 
Q 2697 2925 2356 2925 
Q 2025 2925 1876 2665 
Q 1728 2406 1728 1825 
L 1728 1497 
z
" transform="scale(0.015625)"/>
     </defs>
     <use xlink:href="#DejaVuSerif-Bold-28"/>
     <use xlink:href="#DejaVuSerif-Bold-62" transform="translate(47.314453 0)"/>
     <use xlink:href="#DejaVuSerif-Bold-29" transform="translate(117.236328 0)"/>
    </g>
   </g>
  </g>
  <g id="axes_3">
   <g id="patch_9">
    <path d="M 109.008 455.32 
L 380.4 455.32 
L 380.4 312.99263 
L 109.008 312.99263 
z
" style="fill: #ffffff"/>
   </g>
   <g id="matplotlib.axis_5">
    <g id="xtick_6">
     <g id="line2d_22">
      <path d="M 146.016 455.32 
L 146.016 312.99263 
" clip-path="url(#pfef7b8767d)" style="fill: none; stroke-dasharray: 1.85,0.8; stroke-dashoffset: 0; stroke: #b0b0b0; stroke-opacity: 0.7; stroke-width: 0.5"/>
     </g>
     <g id="line2d_23">
      <g>
       <use xlink:href="#madbd9119f4" x="146.016" y="455.32" style="stroke: #000000; stroke-width: 0.8"/>
      </g>
     </g>
     <g id="text_20">
      <!-- 0.6 -->
      <g transform="translate(134.883813 472.957812) scale(0.14 -0.14)">
       <use xlink:href="#DejaVuSerif-30"/>
       <use xlink:href="#DejaVuSerif-2e" transform="translate(63.623047 0)"/>
       <use xlink:href="#DejaVuSerif-36" transform="translate(95.410156 0)"/>
      </g>
     </g>
    </g>
    <g id="xtick_7">
     <g id="line2d_24">
      <path d="M 195.36 455.32 
L 195.36 312.99263 
" clip-path="url(#pfef7b8767d)" style="fill: none; stroke-dasharray: 1.85,0.8; stroke-dashoffset: 0; stroke: #b0b0b0; stroke-opacity: 0.7; stroke-width: 0.5"/>
     </g>
     <g id="line2d_25">
      <g>
       <use xlink:href="#madbd9119f4" x="195.36" y="455.32" style="stroke: #000000; stroke-width: 0.8"/>
      </g>
     </g>
     <g id="text_21">
      <!-- 0.8 -->
      <g transform="translate(184.227813 472.957812) scale(0.14 -0.14)">
       <use xlink:href="#DejaVuSerif-30"/>
       <use xlink:href="#DejaVuSerif-2e" transform="translate(63.623047 0)"/>
       <use xlink:href="#DejaVuSerif-38" transform="translate(95.410156 0)"/>
      </g>
     </g>
    </g>
    <g id="xtick_8">
     <g id="line2d_26">
      <path d="M 244.704 455.32 
L 244.704 312.99263 
" clip-path="url(#pfef7b8767d)" style="fill: none; stroke-dasharray: 1.85,0.8; stroke-dashoffset: 0; stroke: #b0b0b0; stroke-opacity: 0.7; stroke-width: 0.5"/>
     </g>
     <g id="line2d_27">
      <g>
       <use xlink:href="#madbd9119f4" x="244.704" y="455.32" style="stroke: #000000; stroke-width: 0.8"/>
      </g>
     </g>
     <g id="text_22">
      <!-- 1.0 -->
      <g transform="translate(233.571812 472.957812) scale(0.14 -0.14)">
       <use xlink:href="#DejaVuSerif-31"/>
       <use xlink:href="#DejaVuSerif-2e" transform="translate(63.623047 0)"/>
       <use xlink:href="#DejaVuSerif-30" transform="translate(95.410156 0)"/>
      </g>
     </g>
    </g>
    <g id="xtick_9">
     <g id="line2d_28">
      <path d="M 294.048 455.32 
L 294.048 312.99263 
" clip-path="url(#pfef7b8767d)" style="fill: none; stroke-dasharray: 1.85,0.8; stroke-dashoffset: 0; stroke: #b0b0b0; stroke-opacity: 0.7; stroke-width: 0.5"/>
     </g>
     <g id="line2d_29">
      <g>
       <use xlink:href="#madbd9119f4" x="294.048" y="455.32" style="stroke: #000000; stroke-width: 0.8"/>
      </g>
     </g>
     <g id="text_23">
      <!-- 1.2 -->
      <g transform="translate(282.915813 472.957812) scale(0.14 -0.14)">
       <use xlink:href="#DejaVuSerif-31"/>
       <use xlink:href="#DejaVuSerif-2e" transform="translate(63.623047 0)"/>
       <use xlink:href="#DejaVuSerif-32" transform="translate(95.410156 0)"/>
      </g>
     </g>
    </g>
    <g id="xtick_10">
     <g id="line2d_30">
      <path d="M 343.392 455.32 
L 343.392 312.99263 
" clip-path="url(#pfef7b8767d)" style="fill: none; stroke-dasharray: 1.85,0.8; stroke-dashoffset: 0; stroke: #b0b0b0; stroke-opacity: 0.7; stroke-width: 0.5"/>
     </g>
     <g id="line2d_31">
      <g>
       <use xlink:href="#madbd9119f4" x="343.392" y="455.32" style="stroke: #000000; stroke-width: 0.8"/>
      </g>
     </g>
     <g id="text_24">
      <!-- 1.4 -->
      <g transform="translate(332.259812 472.957812) scale(0.14 -0.14)">
       <use xlink:href="#DejaVuSerif-31"/>
       <use xlink:href="#DejaVuSerif-2e" transform="translate(63.623047 0)"/>
       <use xlink:href="#DejaVuSerif-34" transform="translate(95.410156 0)"/>
      </g>
     </g>
    </g>
    <g id="text_25">
     <!-- Global Buffer (kB) -->
     <g transform="translate(180.144312 490.507187) scale(0.14 -0.14)">
      <use xlink:href="#DejaVuSerif-47"/>
      <use xlink:href="#DejaVuSerif-6c" transform="translate(79.882812 0)"/>
      <use xlink:href="#DejaVuSerif-6f" transform="translate(111.865234 0)"/>
      <use xlink:href="#DejaVuSerif-62" transform="translate(172.070312 0)"/>
      <use xlink:href="#DejaVuSerif-61" transform="translate(236.083984 0)"/>
      <use xlink:href="#DejaVuSerif-6c" transform="translate(295.703125 0)"/>
      <use xlink:href="#DejaVuSerif-20" transform="translate(327.685547 0)"/>
      <use xlink:href="#DejaVuSerif-42" transform="translate(359.472656 0)"/>
      <use xlink:href="#DejaVuSerif-75" transform="translate(432.958984 0)"/>
      <use xlink:href="#DejaVuSerif-66" transform="translate(497.363281 0)"/>
      <use xlink:href="#DejaVuSerif-66" transform="translate(534.375 0)"/>
      <use xlink:href="#DejaVuSerif-65" transform="translate(571.386719 0)"/>
      <use xlink:href="#DejaVuSerif-72" transform="translate(630.566406 0)"/>
      <use xlink:href="#DejaVuSerif-20" transform="translate(678.369141 0)"/>
      <use xlink:href="#DejaVuSerif-28" transform="translate(710.15625 0)"/>
      <use xlink:href="#DejaVuSerif-6b" transform="translate(749.169922 0)"/>
      <use xlink:href="#DejaVuSerif-42" transform="translate(809.765625 0)"/>
      <use xlink:href="#DejaVuSerif-29" transform="translate(883.251953 0)"/>
     </g>
    </g>
   </g>
   <g id="matplotlib.axis_6">
    <g id="ytick_6">
     <g id="line2d_32">
      <path d="M 109.008 420.846627 
L 380.4 420.846627 
" clip-path="url(#pfef7b8767d)" style="fill: none; stroke-dasharray: 1.85,0.8; stroke-dashoffset: 0; stroke: #b0b0b0; stroke-opacity: 0.7; stroke-width: 0.5"/>
     </g>
     <g id="line2d_33">
      <g>
       <use xlink:href="#m539f39c74f" x="109.008" y="420.846627" style="stroke: #000000; stroke-width: 0.8"/>
      </g>
     </g>
     <g id="text_26">
      <!-- 0.052 -->
      <g transform="translate(61.928625 426.165533) scale(0.14 -0.14)">
       <defs>
        <path id="DejaVuSerif-35" d="M 3219 4666 
L 3219 4153 
L 1081 4153 
L 1081 2816 
Q 1244 2928 1461 2984 
Q 1678 3041 1947 3041 
Q 2703 3041 3140 2622 
Q 3578 2203 3578 1478 
Q 3578 738 3136 323 
Q 2694 -91 1894 -91 
Q 1572 -91 1234 -12 
Q 897 66 544 225 
L 544 1131 
L 897 1131 
Q 925 688 1179 453 
Q 1434 219 1894 219 
Q 2388 219 2653 544 
Q 2919 869 2919 1478 
Q 2919 2084 2655 2407 
Q 2391 2731 1894 2731 
Q 1613 2731 1398 2631 
Q 1184 2531 1019 2322 
L 750 2322 
L 750 4666 
L 3219 4666 
z
" transform="scale(0.015625)"/>
       </defs>
       <use xlink:href="#DejaVuSerif-30"/>
       <use xlink:href="#DejaVuSerif-2e" transform="translate(63.623047 0)"/>
       <use xlink:href="#DejaVuSerif-30" transform="translate(95.410156 0)"/>
       <use xlink:href="#DejaVuSerif-35" transform="translate(159.033203 0)"/>
       <use xlink:href="#DejaVuSerif-32" transform="translate(222.65625 0)"/>
      </g>
     </g>
    </g>
    <g id="ytick_7">
     <g id="line2d_34">
      <path d="M 109.008 385.870236 
L 380.4 385.870236 
" clip-path="url(#pfef7b8767d)" style="fill: none; stroke-dasharray: 1.85,0.8; stroke-dashoffset: 0; stroke: #b0b0b0; stroke-opacity: 0.7; stroke-width: 0.5"/>
     </g>
     <g id="line2d_35">
      <g>
       <use xlink:href="#m539f39c74f" x="109.008" y="385.870236" style="stroke: #000000; stroke-width: 0.8"/>
      </g>
     </g>
     <g id="text_27">
      <!-- 0.054 -->
      <g transform="translate(61.928625 391.189143) scale(0.14 -0.14)">
       <use xlink:href="#DejaVuSerif-30"/>
       <use xlink:href="#DejaVuSerif-2e" transform="translate(63.623047 0)"/>
       <use xlink:href="#DejaVuSerif-30" transform="translate(95.410156 0)"/>
       <use xlink:href="#DejaVuSerif-35" transform="translate(159.033203 0)"/>
       <use xlink:href="#DejaVuSerif-34" transform="translate(222.65625 0)"/>
      </g>
     </g>
    </g>
    <g id="ytick_8">
     <g id="line2d_36">
      <path d="M 109.008 350.893846 
L 380.4 350.893846 
" clip-path="url(#pfef7b8767d)" style="fill: none; stroke-dasharray: 1.85,0.8; stroke-dashoffset: 0; stroke: #b0b0b0; stroke-opacity: 0.7; stroke-width: 0.5"/>
     </g>
     <g id="line2d_37">
      <g>
       <use xlink:href="#m539f39c74f" x="109.008" y="350.893846" style="stroke: #000000; stroke-width: 0.8"/>
      </g>
     </g>
     <g id="text_28">
      <!-- 0.056 -->
      <g transform="translate(61.928625 356.212752) scale(0.14 -0.14)">
       <use xlink:href="#DejaVuSerif-30"/>
       <use xlink:href="#DejaVuSerif-2e" transform="translate(63.623047 0)"/>
       <use xlink:href="#DejaVuSerif-30" transform="translate(95.410156 0)"/>
       <use xlink:href="#DejaVuSerif-35" transform="translate(159.033203 0)"/>
       <use xlink:href="#DejaVuSerif-36" transform="translate(222.65625 0)"/>
      </g>
     </g>
    </g>
    <g id="ytick_9">
     <g id="line2d_38">
      <path d="M 109.008 315.917455 
L 380.4 315.917455 
" clip-path="url(#pfef7b8767d)" style="fill: none; stroke-dasharray: 1.85,0.8; stroke-dashoffset: 0; stroke: #b0b0b0; stroke-opacity: 0.7; stroke-width: 0.5"/>
     </g>
     <g id="line2d_39">
      <g>
       <use xlink:href="#m539f39c74f" x="109.008" y="315.917455" style="stroke: #000000; stroke-width: 0.8"/>
      </g>
     </g>
     <g id="text_29">
      <!-- 0.058 -->
      <g transform="translate(61.928625 321.236361) scale(0.14 -0.14)">
       <use xlink:href="#DejaVuSerif-30"/>
       <use xlink:href="#DejaVuSerif-2e" transform="translate(63.623047 0)"/>
       <use xlink:href="#DejaVuSerif-30" transform="translate(95.410156 0)"/>
       <use xlink:href="#DejaVuSerif-35" transform="translate(159.033203 0)"/>
       <use xlink:href="#DejaVuSerif-38" transform="translate(222.65625 0)"/>
      </g>
     </g>
    </g>
    <g id="text_30">
     <!-- Operational CF -->
     <g transform="translate(39.141062 438.66444) rotate(-90) scale(0.14 -0.14)">
      <use xlink:href="#DejaVuSerif-4f"/>
      <use xlink:href="#DejaVuSerif-70" transform="translate(81.982422 0)"/>
      <use xlink:href="#DejaVuSerif-65" transform="translate(145.996094 0)"/>
      <use xlink:href="#DejaVuSerif-72" transform="translate(205.175781 0)"/>
      <use xlink:href="#DejaVuSerif-61" transform="translate(252.978516 0)"/>
      <use xlink:href="#DejaVuSerif-74" transform="translate(312.597656 0)"/>
      <use xlink:href="#DejaVuSerif-69" transform="translate(352.783203 0)"/>
      <use xlink:href="#DejaVuSerif-6f" transform="translate(384.765625 0)"/>
      <use xlink:href="#DejaVuSerif-6e" transform="translate(444.970703 0)"/>
      <use xlink:href="#DejaVuSerif-61" transform="translate(509.375 0)"/>
      <use xlink:href="#DejaVuSerif-6c" transform="translate(568.994141 0)"/>
      <use xlink:href="#DejaVuSerif-20" transform="translate(600.976562 0)"/>
      <use xlink:href="#DejaVuSerif-43" transform="translate(632.763672 0)"/>
      <use xlink:href="#DejaVuSerif-46" transform="translate(709.277344 0)"/>
     </g>
     <!-- (kg CO₂) -->
     <g transform="translate(54.818 414.467409) rotate(-90) scale(0.14 -0.14)">
      <use xlink:href="#DejaVuSerif-28"/>
      <use xlink:href="#DejaVuSerif-6b" transform="translate(39.013672 0)"/>
      <use xlink:href="#DejaVuSerif-67" transform="translate(99.609375 0)"/>
      <use xlink:href="#DejaVuSerif-20" transform="translate(163.623047 0)"/>
      <use xlink:href="#DejaVuSerif-43" transform="translate(195.410156 0)"/>
      <use xlink:href="#DejaVuSerif-4f" transform="translate(271.923828 0)"/>
      <use xlink:href="#DejaVuSerif-2082" transform="translate(353.90625 0)"/>
      <use xlink:href="#DejaVuSerif-29" transform="translate(393.994141 0)"/>
     </g>
    </g>
   </g>
   <g id="line2d_40">
    <path d="M 121.344 363.869597 
L 136.764 359.415566 
L 152.184 353.687603 
L 167.604 364.633392 
L 183.024 360.324079 
L 198.444 400.429948 
L 213.864 399.447484 
L 229.284 395.321941 
L 244.704 391.617606 
L 260.124 448.850574 
L 275.544 446.515315 
L 290.964 334.747115 
L 306.384 331.525689 
L 321.804 328.306476 
L 337.224 325.892719 
L 352.644 322.676751 
L 368.064 319.462056 
" clip-path="url(#pfef7b8767d)" style="fill: none; stroke: #003f5c; stroke-width: 4; stroke-linecap: square"/>
    <g clip-path="url(#pfef7b8767d)">
     <use xlink:href="#me6f96acb92" x="121.344" y="363.869597" style="fill: #003f5c; stroke: #003f5c"/>
     <use xlink:href="#me6f96acb92" x="136.764" y="359.415566" style="fill: #003f5c; stroke: #003f5c"/>
     <use xlink:href="#me6f96acb92" x="152.184" y="353.687603" style="fill: #003f5c; stroke: #003f5c"/>
     <use xlink:href="#me6f96acb92" x="167.604" y="364.633392" style="fill: #003f5c; stroke: #003f5c"/>
     <use xlink:href="#me6f96acb92" x="183.024" y="360.324079" style="fill: #003f5c; stroke: #003f5c"/>
     <use xlink:href="#me6f96acb92" x="198.444" y="400.429948" style="fill: #003f5c; stroke: #003f5c"/>
     <use xlink:href="#me6f96acb92" x="213.864" y="399.447484" style="fill: #003f5c; stroke: #003f5c"/>
     <use xlink:href="#me6f96acb92" x="229.284" y="395.321941" style="fill: #003f5c; stroke: #003f5c"/>
     <use xlink:href="#me6f96acb92" x="244.704" y="391.617606" style="fill: #003f5c; stroke: #003f5c"/>
     <use xlink:href="#me6f96acb92" x="260.124" y="448.850574" style="fill: #003f5c; stroke: #003f5c"/>
     <use xlink:href="#me6f96acb92" x="275.544" y="446.515315" style="fill: #003f5c; stroke: #003f5c"/>
     <use xlink:href="#me6f96acb92" x="290.964" y="334.747115" style="fill: #003f5c; stroke: #003f5c"/>
     <use xlink:href="#me6f96acb92" x="306.384" y="331.525689" style="fill: #003f5c; stroke: #003f5c"/>
     <use xlink:href="#me6f96acb92" x="321.804" y="328.306476" style="fill: #003f5c; stroke: #003f5c"/>
     <use xlink:href="#me6f96acb92" x="337.224" y="325.892719" style="fill: #003f5c; stroke: #003f5c"/>
     <use xlink:href="#me6f96acb92" x="352.644" y="322.676751" style="fill: #003f5c; stroke: #003f5c"/>
     <use xlink:href="#me6f96acb92" x="368.064" y="319.462056" style="fill: #003f5c; stroke: #003f5c"/>
    </g>
   </g>
   <g id="patch_10">
    <path d="M 109.008 455.32 
L 109.008 312.99263 
" style="fill: none; stroke: #000000; stroke-width: 0.8; stroke-linejoin: miter; stroke-linecap: square"/>
   </g>
   <g id="patch_11">
    <path d="M 380.4 455.32 
L 380.4 312.99263 
" style="fill: none; stroke: #000000; stroke-width: 0.8; stroke-linejoin: miter; stroke-linecap: square"/>
   </g>
   <g id="patch_12">
    <path d="M 109.008 455.32 
L 380.4 455.32 
" style="fill: none; stroke: #000000; stroke-width: 0.8; stroke-linejoin: miter; stroke-linecap: square"/>
   </g>
   <g id="patch_13">
    <path d="M 109.008 312.99263 
L 380.4 312.99263 
" style="fill: none; stroke: #000000; stroke-width: 0.8; stroke-linejoin: miter; stroke-linecap: square"/>
   </g>
   <g id="text_31">
    <!-- (c) -->
    <g transform="translate(14.0208 306.551158) scale(0.14 -0.14)">
     <defs>
      <path id="DejaVuSerif-Bold-63" d="M 3609 1038 
Q 3491 469 3123 189 
Q 2756 -91 2125 -91 
Q 1238 -91 750 368 
Q 263 828 263 1663 
Q 263 2488 744 2950 
Q 1225 3413 2081 3413 
Q 2428 3413 2781 3347 
Q 3134 3281 3500 3150 
L 3500 2228 
L 3150 2228 
Q 3100 2650 2903 2854 
Q 2706 3059 2350 3059 
Q 1888 3059 1692 2746 
Q 1497 2434 1497 1663 
Q 1497 909 1687 586 
Q 1878 263 2309 263 
Q 2644 263 2845 463 
Q 3047 663 3091 1038 
L 3609 1038 
z
" transform="scale(0.015625)"/>
     </defs>
     <use xlink:href="#DejaVuSerif-Bold-28"/>
     <use xlink:href="#DejaVuSerif-Bold-63" transform="translate(47.314453 0)"/>
     <use xlink:href="#DejaVuSerif-Bold-29" transform="translate(108.203125 0)"/>
    </g>
   </g>
  </g>
  <g id="axes_4">
   <g id="patch_14">
    <path d="M 489.408 455.32 
L 760.8 455.32 
L 760.8 312.99263 
L 489.408 312.99263 
z
" style="fill: #ffffff"/>
   </g>
   <g id="matplotlib.axis_7">
    <g id="xtick_11">
     <g id="line2d_41">
      <path d="M 526.416 455.32 
L 526.416 312.99263 
" clip-path="url(#p572ef747a5)" style="fill: none; stroke-dasharray: 1.85,0.8; stroke-dashoffset: 0; stroke: #b0b0b0; stroke-opacity: 0.7; stroke-width: 0.5"/>
     </g>
     <g id="line2d_42">
      <g>
       <use xlink:href="#madbd9119f4" x="526.416" y="455.32" style="stroke: #000000; stroke-width: 0.8"/>
      </g>
     </g>
     <g id="text_32">
      <!-- 0.6 -->
      <g transform="translate(515.283812 472.957812) scale(0.14 -0.14)">
       <use xlink:href="#DejaVuSerif-30"/>
       <use xlink:href="#DejaVuSerif-2e" transform="translate(63.623047 0)"/>
       <use xlink:href="#DejaVuSerif-36" transform="translate(95.410156 0)"/>
      </g>
     </g>
    </g>
    <g id="xtick_12">
     <g id="line2d_43">
      <path d="M 575.76 455.32 
L 575.76 312.99263 
" clip-path="url(#p572ef747a5)" style="fill: none; stroke-dasharray: 1.85,0.8; stroke-dashoffset: 0; stroke: #b0b0b0; stroke-opacity: 0.7; stroke-width: 0.5"/>
     </g>
     <g id="line2d_44">
      <g>
       <use xlink:href="#madbd9119f4" x="575.76" y="455.32" style="stroke: #000000; stroke-width: 0.8"/>
      </g>
     </g>
     <g id="text_33">
      <!-- 0.8 -->
      <g transform="translate(564.627813 472.957812) scale(0.14 -0.14)">
       <use xlink:href="#DejaVuSerif-30"/>
       <use xlink:href="#DejaVuSerif-2e" transform="translate(63.623047 0)"/>
       <use xlink:href="#DejaVuSerif-38" transform="translate(95.410156 0)"/>
      </g>
     </g>
    </g>
    <g id="xtick_13">
     <g id="line2d_45">
      <path d="M 625.104 455.32 
L 625.104 312.99263 
" clip-path="url(#p572ef747a5)" style="fill: none; stroke-dasharray: 1.85,0.8; stroke-dashoffset: 0; stroke: #b0b0b0; stroke-opacity: 0.7; stroke-width: 0.5"/>
     </g>
     <g id="line2d_46">
      <g>
       <use xlink:href="#madbd9119f4" x="625.104" y="455.32" style="stroke: #000000; stroke-width: 0.8"/>
      </g>
     </g>
     <g id="text_34">
      <!-- 1.0 -->
      <g transform="translate(613.971812 472.957812) scale(0.14 -0.14)">
       <use xlink:href="#DejaVuSerif-31"/>
       <use xlink:href="#DejaVuSerif-2e" transform="translate(63.623047 0)"/>
       <use xlink:href="#DejaVuSerif-30" transform="translate(95.410156 0)"/>
      </g>
     </g>
    </g>
    <g id="xtick_14">
     <g id="line2d_47">
      <path d="M 674.448 455.32 
L 674.448 312.99263 
" clip-path="url(#p572ef747a5)" style="fill: none; stroke-dasharray: 1.85,0.8; stroke-dashoffset: 0; stroke: #b0b0b0; stroke-opacity: 0.7; stroke-width: 0.5"/>
     </g>
     <g id="line2d_48">
      <g>
       <use xlink:href="#madbd9119f4" x="674.448" y="455.32" style="stroke: #000000; stroke-width: 0.8"/>
      </g>
     </g>
     <g id="text_35">
      <!-- 1.2 -->
      <g transform="translate(663.315812 472.957812) scale(0.14 -0.14)">
       <use xlink:href="#DejaVuSerif-31"/>
       <use xlink:href="#DejaVuSerif-2e" transform="translate(63.623047 0)"/>
       <use xlink:href="#DejaVuSerif-32" transform="translate(95.410156 0)"/>
      </g>
     </g>
    </g>
    <g id="xtick_15">
     <g id="line2d_49">
      <path d="M 723.792 455.32 
L 723.792 312.99263 
" clip-path="url(#p572ef747a5)" style="fill: none; stroke-dasharray: 1.85,0.8; stroke-dashoffset: 0; stroke: #b0b0b0; stroke-opacity: 0.7; stroke-width: 0.5"/>
     </g>
     <g id="line2d_50">
      <g>
       <use xlink:href="#madbd9119f4" x="723.792" y="455.32" style="stroke: #000000; stroke-width: 0.8"/>
      </g>
     </g>
     <g id="text_36">
      <!-- 1.4 -->
      <g transform="translate(712.659812 472.957812) scale(0.14 -0.14)">
       <use xlink:href="#DejaVuSerif-31"/>
       <use xlink:href="#DejaVuSerif-2e" transform="translate(63.623047 0)"/>
       <use xlink:href="#DejaVuSerif-34" transform="translate(95.410156 0)"/>
      </g>
     </g>
    </g>
    <g id="text_37">
     <!-- Global Buffer (kB) -->
     <g transform="translate(560.544313 490.507187) scale(0.14 -0.14)">
      <use xlink:href="#DejaVuSerif-47"/>
      <use xlink:href="#DejaVuSerif-6c" transform="translate(79.882812 0)"/>
      <use xlink:href="#DejaVuSerif-6f" transform="translate(111.865234 0)"/>
      <use xlink:href="#DejaVuSerif-62" transform="translate(172.070312 0)"/>
      <use xlink:href="#DejaVuSerif-61" transform="translate(236.083984 0)"/>
      <use xlink:href="#DejaVuSerif-6c" transform="translate(295.703125 0)"/>
      <use xlink:href="#DejaVuSerif-20" transform="translate(327.685547 0)"/>
      <use xlink:href="#DejaVuSerif-42" transform="translate(359.472656 0)"/>
      <use xlink:href="#DejaVuSerif-75" transform="translate(432.958984 0)"/>
      <use xlink:href="#DejaVuSerif-66" transform="translate(497.363281 0)"/>
      <use xlink:href="#DejaVuSerif-66" transform="translate(534.375 0)"/>
      <use xlink:href="#DejaVuSerif-65" transform="translate(571.386719 0)"/>
      <use xlink:href="#DejaVuSerif-72" transform="translate(630.566406 0)"/>
      <use xlink:href="#DejaVuSerif-20" transform="translate(678.369141 0)"/>
      <use xlink:href="#DejaVuSerif-28" transform="translate(710.15625 0)"/>
      <use xlink:href="#DejaVuSerif-6b" transform="translate(749.169922 0)"/>
      <use xlink:href="#DejaVuSerif-42" transform="translate(809.765625 0)"/>
      <use xlink:href="#DejaVuSerif-29" transform="translate(883.251953 0)"/>
     </g>
    </g>
   </g>
   <g id="matplotlib.axis_8">
    <g id="ytick_10">
     <g id="line2d_51">
      <path d="M 489.408 453.422497 
L 760.8 453.422497 
" clip-path="url(#p572ef747a5)" style="fill: none; stroke-dasharray: 1.85,0.8; stroke-dashoffset: 0; stroke: #b0b0b0; stroke-opacity: 0.7; stroke-width: 0.5"/>
     </g>
     <g id="line2d_52">
      <g>
       <use xlink:href="#m539f39c74f" x="489.408" y="453.422497" style="stroke: #000000; stroke-width: 0.8"/>
      </g>
     </g>
     <g id="text_38">
      <!-- 0.0330 -->
      <g transform="translate(433.421125 458.741403) scale(0.14 -0.14)">
       <defs>
        <path id="DejaVuSerif-33" d="M 622 4469 
Q 988 4606 1323 4678 
Q 1659 4750 1953 4750 
Q 2638 4750 3022 4454 
Q 3406 4159 3406 3634 
Q 3406 3213 3140 2930 
Q 2875 2647 2388 2547 
Q 2963 2466 3280 2130 
Q 3597 1794 3597 1259 
Q 3597 606 3158 257 
Q 2719 -91 1894 -91 
Q 1528 -91 1179 -12 
Q 831 66 488 225 
L 488 1131 
L 838 1131 
Q 869 681 1141 450 
Q 1413 219 1906 219 
Q 2384 219 2661 495 
Q 2938 772 2938 1253 
Q 2938 1803 2653 2086 
Q 2369 2369 1819 2369 
L 1522 2369 
L 1522 2688 
L 1678 2688 
Q 2225 2688 2498 2914 
Q 2772 3141 2772 3597 
Q 2772 4006 2547 4223 
Q 2322 4441 1900 4441 
Q 1478 4441 1245 4241 
Q 1013 4041 972 3647 
L 622 3647 
L 622 4469 
z
" transform="scale(0.015625)"/>
       </defs>
       <use xlink:href="#DejaVuSerif-30"/>
       <use xlink:href="#DejaVuSerif-2e" transform="translate(63.623047 0)"/>
       <use xlink:href="#DejaVuSerif-30" transform="translate(95.410156 0)"/>
       <use xlink:href="#DejaVuSerif-33" transform="translate(159.033203 0)"/>
       <use xlink:href="#DejaVuSerif-33" transform="translate(222.65625 0)"/>
       <use xlink:href="#DejaVuSerif-30" transform="translate(286.279297 0)"/>
      </g>
     </g>
    </g>
    <g id="ytick_11">
     <g id="line2d_53">
      <path d="M 489.408 404.763003 
L 760.8 404.763003 
" clip-path="url(#p572ef747a5)" style="fill: none; stroke-dasharray: 1.85,0.8; stroke-dashoffset: 0; stroke: #b0b0b0; stroke-opacity: 0.7; stroke-width: 0.5"/>
     </g>
     <g id="line2d_54">
      <g>
       <use xlink:href="#m539f39c74f" x="489.408" y="404.763003" style="stroke: #000000; stroke-width: 0.8"/>
      </g>
     </g>
     <g id="text_39">
      <!-- 0.0335 -->
      <g transform="translate(433.421125 410.081909) scale(0.14 -0.14)">
       <use xlink:href="#DejaVuSerif-30"/>
       <use xlink:href="#DejaVuSerif-2e" transform="translate(63.623047 0)"/>
       <use xlink:href="#DejaVuSerif-30" transform="translate(95.410156 0)"/>
       <use xlink:href="#DejaVuSerif-33" transform="translate(159.033203 0)"/>
       <use xlink:href="#DejaVuSerif-33" transform="translate(222.65625 0)"/>
       <use xlink:href="#DejaVuSerif-35" transform="translate(286.279297 0)"/>
      </g>
     </g>
    </g>
    <g id="ytick_12">
     <g id="line2d_55">
      <path d="M 489.408 356.103508 
L 760.8 356.103508 
" clip-path="url(#p572ef747a5)" style="fill: none; stroke-dasharray: 1.85,0.8; stroke-dashoffset: 0; stroke: #b0b0b0; stroke-opacity: 0.7; stroke-width: 0.5"/>
     </g>
     <g id="line2d_56">
      <g>
       <use xlink:href="#m539f39c74f" x="489.408" y="356.103508" style="stroke: #000000; stroke-width: 0.8"/>
      </g>
     </g>
     <g id="text_40">
      <!-- 0.0340 -->
      <g transform="translate(433.421125 361.422415) scale(0.14 -0.14)">
       <use xlink:href="#DejaVuSerif-30"/>
       <use xlink:href="#DejaVuSerif-2e" transform="translate(63.623047 0)"/>
       <use xlink:href="#DejaVuSerif-30" transform="translate(95.410156 0)"/>
       <use xlink:href="#DejaVuSerif-33" transform="translate(159.033203 0)"/>
       <use xlink:href="#DejaVuSerif-34" transform="translate(222.65625 0)"/>
       <use xlink:href="#DejaVuSerif-30" transform="translate(286.279297 0)"/>
      </g>
     </g>
    </g>
    <g id="text_41">
     <!-- Embodied CF -->
     <g transform="translate(410.633563 432.38194) rotate(-90) scale(0.14 -0.14)">
      <use xlink:href="#DejaVuSerif-45"/>
      <use xlink:href="#DejaVuSerif-6d" transform="translate(72.998047 0)"/>
      <use xlink:href="#DejaVuSerif-62" transform="translate(167.822266 0)"/>
      <use xlink:href="#DejaVuSerif-6f" transform="translate(231.835938 0)"/>
      <use xlink:href="#DejaVuSerif-64" transform="translate(292.041016 0)"/>
      <use xlink:href="#DejaVuSerif-69" transform="translate(356.054688 0)"/>
      <use xlink:href="#DejaVuSerif-65" transform="translate(388.037109 0)"/>
      <use xlink:href="#DejaVuSerif-64" transform="translate(447.216797 0)"/>
      <use xlink:href="#DejaVuSerif-20" transform="translate(511.230469 0)"/>
      <use xlink:href="#DejaVuSerif-43" transform="translate(543.017578 0)"/>
      <use xlink:href="#DejaVuSerif-46" transform="translate(619.53125 0)"/>
     </g>
     <!-- (kg CO₂) -->
     <g transform="translate(426.3105 414.467409) rotate(-90) scale(0.14 -0.14)">
      <use xlink:href="#DejaVuSerif-28"/>
      <use xlink:href="#DejaVuSerif-6b" transform="translate(39.013672 0)"/>
      <use xlink:href="#DejaVuSerif-67" transform="translate(99.609375 0)"/>
      <use xlink:href="#DejaVuSerif-20" transform="translate(163.623047 0)"/>
      <use xlink:href="#DejaVuSerif-43" transform="translate(195.410156 0)"/>
      <use xlink:href="#DejaVuSerif-4f" transform="translate(271.923828 0)"/>
      <use xlink:href="#DejaVuSerif-2082" transform="translate(353.90625 0)"/>
      <use xlink:href="#DejaVuSerif-29" transform="translate(393.994141 0)"/>
     </g>
    </g>
   </g>
   <g id="line2d_57">
    <path d="M 501.744 448.850574 
L 517.164 438.553783 
L 532.584 431.444365 
L 548.004 422.598675 
L 563.424 415.906067 
L 578.844 412.072463 
L 594.264 400.655276 
L 609.684 394.144512 
L 625.104 388.25152 
L 640.524 364.330461 
L 655.944 357.669668 
L 671.364 351.030767 
L 686.784 344.388947 
L 702.204 337.742749 
L 717.624 332.763209 
L 733.044 326.102416 
L 748.464 319.462056 
" clip-path="url(#p572ef747a5)" style="fill: none; stroke: #003f5c; stroke-width: 4; stroke-linecap: square"/>
    <g clip-path="url(#p572ef747a5)">
     <use xlink:href="#me6f96acb92" x="501.744" y="448.850574" style="fill: #003f5c; stroke: #003f5c"/>
     <use xlink:href="#me6f96acb92" x="517.164" y="438.553783" style="fill: #003f5c; stroke: #003f5c"/>
     <use xlink:href="#me6f96acb92" x="532.584" y="431.444365" style="fill: #003f5c; stroke: #003f5c"/>
     <use xlink:href="#me6f96acb92" x="548.004" y="422.598675" style="fill: #003f5c; stroke: #003f5c"/>
     <use xlink:href="#me6f96acb92" x="563.424" y="415.906067" style="fill: #003f5c; stroke: #003f5c"/>
     <use xlink:href="#me6f96acb92" x="578.844" y="412.072463" style="fill: #003f5c; stroke: #003f5c"/>
     <use xlink:href="#me6f96acb92" x="594.264" y="400.655276" style="fill: #003f5c; stroke: #003f5c"/>
     <use xlink:href="#me6f96acb92" x="609.684" y="394.144512" style="fill: #003f5c; stroke: #003f5c"/>
     <use xlink:href="#me6f96acb92" x="625.104" y="388.25152" style="fill: #003f5c; stroke: #003f5c"/>
     <use xlink:href="#me6f96acb92" x="640.524" y="364.330461" style="fill: #003f5c; stroke: #003f5c"/>
     <use xlink:href="#me6f96acb92" x="655.944" y="357.669668" style="fill: #003f5c; stroke: #003f5c"/>
     <use xlink:href="#me6f96acb92" x="671.364" y="351.030767" style="fill: #003f5c; stroke: #003f5c"/>
     <use xlink:href="#me6f96acb92" x="686.784" y="344.388947" style="fill: #003f5c; stroke: #003f5c"/>
     <use xlink:href="#me6f96acb92" x="702.204" y="337.742749" style="fill: #003f5c; stroke: #003f5c"/>
     <use xlink:href="#me6f96acb92" x="717.624" y="332.763209" style="fill: #003f5c; stroke: #003f5c"/>
     <use xlink:href="#me6f96acb92" x="733.044" y="326.102416" style="fill: #003f5c; stroke: #003f5c"/>
     <use xlink:href="#me6f96acb92" x="748.464" y="319.462056" style="fill: #003f5c; stroke: #003f5c"/>
    </g>
   </g>
   <g id="patch_15">
    <path d="M 489.408 455.32 
L 489.408 312.99263 
" style="fill: none; stroke: #000000; stroke-width: 0.8; stroke-linejoin: miter; stroke-linecap: square"/>
   </g>
   <g id="patch_16">
    <path d="M 760.8 455.32 
L 760.8 312.99263 
" style="fill: none; stroke: #000000; stroke-width: 0.8; stroke-linejoin: miter; stroke-linecap: square"/>
   </g>
   <g id="patch_17">
    <path d="M 489.408 455.32 
L 760.8 455.32 
" style="fill: none; stroke: #000000; stroke-width: 0.8; stroke-linejoin: miter; stroke-linecap: square"/>
   </g>
   <g id="patch_18">
    <path d="M 489.408 312.99263 
L 760.8 312.99263 
" style="fill: none; stroke: #000000; stroke-width: 0.8; stroke-linejoin: miter; stroke-linecap: square"/>
   </g>
   <g id="text_42">
    <!-- (d) -->
    <g transform="translate(394.4208 306.551158) scale(0.14 -0.14)">
     <defs>
      <path id="DejaVuSerif-Bold-64" d="M 2747 1497 
L 2747 1825 
Q 2747 2406 2597 2665 
Q 2447 2925 2119 2925 
Q 1775 2925 1636 2651 
Q 1497 2378 1497 1663 
Q 1497 947 1637 672 
Q 1778 397 2119 397 
Q 2447 397 2597 656 
Q 2747 916 2747 1497 
z
M 3853 378 
L 4325 378 
L 4325 0 
L 2747 0 
L 2747 422 
Q 2606 163 2367 36 
Q 2128 -91 1778 -91 
Q 1072 -91 667 378 
Q 263 847 263 1663 
Q 263 2481 667 2947 
Q 1072 3413 1778 3413 
Q 2128 3413 2367 3286 
Q 2606 3159 2747 2900 
L 2747 4488 
L 2272 4488 
L 2272 4863 
L 3853 4863 
L 3853 378 
z
" transform="scale(0.015625)"/>
     </defs>
     <use xlink:href="#DejaVuSerif-Bold-28"/>
     <use xlink:href="#DejaVuSerif-Bold-64" transform="translate(47.314453 0)"/>
     <use xlink:href="#DejaVuSerif-Bold-29" transform="translate(117.236328 0)"/>
    </g>
   </g>
  </g>
  <g id="axes_5">
   <g id="patch_19">
    <path d="M 1005.504006 319.462056 
C 1000.649582 319.462056 995.810544 320.008443 991.078342 321.090893 
C 986.346139 322.173342 981.750771 323.784992 977.37908 325.895384 
L 1005.504006 384.156346 
z
" style="fill: #174978"/>
   </g>
   <g id="patch_20">
    <path d="M 977.379084 325.895382 
C 967.380353 330.722173 958.790529 338.042632 952.439434 347.14956 
C 946.088339 356.256488 942.187297 366.846867 941.113174 377.897604 
C 940.039047 388.948342 941.827578 400.091727 946.305984 410.251276 
C 950.784389 420.410827 957.803666 429.248488 966.685695 435.910476 
C 975.567725 442.572464 986.016981 446.837123 997.024003 448.292458 
C 1008.031025 449.747793 1019.229543 448.34539 1029.537774 444.220722 
C 1039.846006 440.096055 1048.920932 433.386359 1055.885861 424.73984 
C 1062.850791 416.09332 1067.473972 405.797671 1069.308788 394.847513 
L 1005.504006 384.156346 
z
" style="fill: #46769b"/>
   </g>
   <g id="patch_21">
    <path d="M 1069.308788 394.847513 
C 1070.862221 385.576639 1070.376556 376.077616 1067.885694 367.013519 
C 1065.394832 357.949423 1060.958107 349.536173 1054.885224 342.361053 
C 1048.812341 335.185932 1041.247969 329.419862 1032.72013 325.465344 
C 1024.192291 321.510826 1014.904135 319.462056 1005.504015 319.462056 
L 1005.504006 384.156346 
z
" style="fill: #75a2bf"/>
   </g>
   <g id="matplotlib.axis_9">
    <g id="text_43">
     <!-- Embodied CF Breakdown -->
     <g transform="translate(901.854 471.4775) scale(0.16 -0.16)">
      <use xlink:href="#DejaVuSerif-45"/>
      <use xlink:href="#DejaVuSerif-6d" transform="translate(72.998047 0)"/>
      <use xlink:href="#DejaVuSerif-62" transform="translate(167.822266 0)"/>
      <use xlink:href="#DejaVuSerif-6f" transform="translate(231.835938 0)"/>
      <use xlink:href="#DejaVuSerif-64" transform="translate(292.041016 0)"/>
      <use xlink:href="#DejaVuSerif-69" transform="translate(356.054688 0)"/>
      <use xlink:href="#DejaVuSerif-65" transform="translate(388.037109 0)"/>
      <use xlink:href="#DejaVuSerif-64" transform="translate(447.216797 0)"/>
      <use xlink:href="#DejaVuSerif-20" transform="translate(511.230469 0)"/>
      <use xlink:href="#DejaVuSerif-43" transform="translate(543.017578 0)"/>
      <use xlink:href="#DejaVuSerif-46" transform="translate(619.53125 0)"/>
      <use xlink:href="#DejaVuSerif-20" transform="translate(688.916016 0)"/>
      <use xlink:href="#DejaVuSerif-42" transform="translate(720.703125 0)"/>
      <use xlink:href="#DejaVuSerif-72" transform="translate(794.189453 0)"/>
      <use xlink:href="#DejaVuSerif-65" transform="translate(841.992188 0)"/>
      <use xlink:href="#DejaVuSerif-61" transform="translate(901.171875 0)"/>
      <use xlink:href="#DejaVuSerif-6b" transform="translate(960.791016 0)"/>
      <use xlink:href="#DejaVuSerif-64" transform="translate(1021.386719 0)"/>
      <use xlink:href="#DejaVuSerif-6f" transform="translate(1085.400391 0)"/>
      <use xlink:href="#DejaVuSerif-77" transform="translate(1145.605469 0)"/>
      <use xlink:href="#DejaVuSerif-6e" transform="translate(1231.201172 0)"/>
     </g>
     <!--  -->
     <g transform="translate(1005.504 489.394) scale(0.16 -0.16)"/>
    </g>
   </g>
   <g id="matplotlib.axis_10"/>
   <g id="text_44">
    <!-- Processor -->
    <g transform="translate(919.482655 318.647471) scale(0.14 -0.14)">
     <defs>
      <path id="DejaVuSerif-50" d="M 1581 2375 
L 2406 2375 
Q 2872 2375 3115 2626 
Q 3359 2878 3359 3353 
Q 3359 3831 3115 4081 
Q 2872 4331 2406 4331 
L 1581 4331 
L 1581 2375 
z
M 353 0 
L 353 331 
L 947 331 
L 947 4331 
L 353 4331 
L 353 4666 
L 2559 4666 
Q 3259 4666 3668 4311 
Q 4078 3956 4078 3353 
Q 4078 2753 3668 2397 
Q 3259 2041 2559 2041 
L 1581 2041 
L 1581 331 
L 2303 331 
L 2303 0 
L 353 0 
z
" transform="scale(0.015625)"/>
      <path id="DejaVuSerif-63" d="M 3291 997 
Q 3169 466 2822 187 
Q 2475 -91 1925 -91 
Q 1200 -91 759 389 
Q 319 869 319 1663 
Q 319 2459 759 2936 
Q 1200 3413 1925 3413 
Q 2241 3413 2553 3339 
Q 2866 3266 3181 3116 
L 3181 2266 
L 2847 2266 
Q 2781 2703 2561 2903 
Q 2341 3103 1931 3103 
Q 1466 3103 1228 2742 
Q 991 2381 991 1663 
Q 991 944 1227 581 
Q 1463 219 1931 219 
Q 2303 219 2525 412 
Q 2747 606 2828 997 
L 3291 997 
z
" transform="scale(0.015625)"/>
      <path id="DejaVuSerif-73" d="M 359 184 
L 359 959 
L 691 959 
Q 703 588 923 403 
Q 1144 219 1575 219 
Q 1963 219 2166 364 
Q 2369 509 2369 788 
Q 2369 1006 2220 1140 
Q 2072 1275 1594 1428 
L 1178 1569 
Q 750 1706 558 1912 
Q 366 2119 366 2438 
Q 366 2894 700 3153 
Q 1034 3413 1625 3413 
Q 1888 3413 2178 3344 
Q 2469 3275 2778 3144 
L 2778 2419 
L 2447 2419 
Q 2434 2741 2221 2922 
Q 2009 3103 1644 3103 
Q 1281 3103 1095 2975 
Q 909 2847 909 2591 
Q 909 2381 1050 2254 
Q 1191 2128 1613 1997 
L 2069 1856 
Q 2541 1709 2748 1489 
Q 2956 1269 2956 922 
Q 2956 450 2595 179 
Q 2234 -91 1600 -91 
Q 1278 -91 972 -22 
Q 666 47 359 184 
z
" transform="scale(0.015625)"/>
     </defs>
     <use xlink:href="#DejaVuSerif-50"/>
     <use xlink:href="#DejaVuSerif-72" transform="translate(67.285156 0)"/>
     <use xlink:href="#DejaVuSerif-6f" transform="translate(115.087891 0)"/>
     <use xlink:href="#DejaVuSerif-63" transform="translate(175.292969 0)"/>
     <use xlink:href="#DejaVuSerif-65" transform="translate(231.298828 0)"/>
     <use xlink:href="#DejaVuSerif-73" transform="translate(290.478516 0)"/>
     <use xlink:href="#DejaVuSerif-73" transform="translate(341.796875 0)"/>
     <use xlink:href="#DejaVuSerif-6f" transform="translate(393.115234 0)"/>
     <use xlink:href="#DejaVuSerif-72" transform="translate(453.320312 0)"/>
    </g>
   </g>
   <g id="text_45">
    <!-- 7.2% -->
    <g style="fill: #ffffff" transform="translate(978.019704 350.180199) scale(0.14 -0.14)">
     <defs>
      <path id="DejaVuSerif-Bold-37" d="M 3922 3872 
L 1997 0 
L 1363 0 
L 3238 3781 
L 934 3781 
L 934 3150 
L 506 3150 
L 506 4666 
L 3922 4666 
L 3922 3872 
z
" transform="scale(0.015625)"/>
     </defs>
     <use xlink:href="#DejaVuSerif-Bold-37"/>
     <use xlink:href="#DejaVuSerif-Bold-2e" transform="translate(69.580078 0)"/>
     <use xlink:href="#DejaVuSerif-Bold-32" transform="translate(104.394531 0)"/>
     <use xlink:href="#DejaVuSerif-Bold-25" transform="translate(173.974609 0)"/>
    </g>
   </g>
   <g id="text_46">
    <!-- DRAM -->
    <g transform="translate(916.592928 444.949015) scale(0.14 -0.14)">
     <defs>
      <path id="DejaVuSerif-44" d="M 1581 331 
L 2163 331 
Q 3072 331 3558 850 
Q 4044 1369 4044 2338 
Q 4044 3306 3559 3818 
Q 3075 4331 2163 4331 
L 1581 4331 
L 1581 331 
z
M 353 0 
L 353 331 
L 947 331 
L 947 4331 
L 353 4331 
L 353 4666 
L 2209 4666 
Q 3416 4666 4089 4050 
Q 4763 3434 4763 2338 
Q 4763 1238 4088 619 
Q 3413 0 2209 0 
L 353 0 
z
" transform="scale(0.015625)"/>
      <path id="DejaVuSerif-52" d="M 3066 2316 
Q 3284 2256 3442 2114 
Q 3600 1972 3725 1716 
L 4403 331 
L 4972 331 
L 4972 0 
L 3872 0 
L 3144 1484 
Q 2934 1916 2759 2042 
Q 2584 2169 2278 2169 
L 1581 2169 
L 1581 331 
L 2241 331 
L 2241 0 
L 353 0 
L 353 331 
L 947 331 
L 947 4331 
L 353 4331 
L 353 4666 
L 2719 4666 
Q 3400 4666 3770 4341 
Q 4141 4016 4141 3419 
Q 4141 2938 3870 2661 
Q 3600 2384 3066 2316 
z
M 1581 2503 
L 2503 2503 
Q 2975 2503 3200 2726 
Q 3425 2950 3425 3419 
Q 3425 3888 3200 4109 
Q 2975 4331 2503 4331 
L 1581 4331 
L 1581 2503 
z
" transform="scale(0.015625)"/>
      <path id="DejaVuSerif-41" d="M 1281 1691 
L 2994 1691 
L 2138 3909 
L 1281 1691 
z
M -38 0 
L -38 331 
L 372 331 
L 2034 4666 
L 2559 4666 
L 4225 331 
L 4684 331 
L 4684 0 
L 2988 0 
L 2988 331 
L 3506 331 
L 3116 1356 
L 1153 1356 
L 763 331 
L 1275 331 
L 1275 0 
L -38 0 
z
" transform="scale(0.015625)"/>
      <path id="DejaVuSerif-4d" d="M 353 0 
L 353 331 
L 947 331 
L 947 4331 
L 319 4331 
L 319 4666 
L 1678 4666 
L 3316 1344 
L 4953 4666 
L 6228 4666 
L 6228 4331 
L 5606 4331 
L 5606 331 
L 6203 331 
L 6203 0 
L 4378 0 
L 4378 331 
L 4972 331 
L 4972 3938 
L 3372 684 
L 2931 684 
L 1331 3938 
L 1331 331 
L 1925 331 
L 1925 0 
L 353 0 
z
" transform="scale(0.015625)"/>
     </defs>
     <use xlink:href="#DejaVuSerif-44"/>
     <use xlink:href="#DejaVuSerif-52" transform="translate(80.175781 0)"/>
     <use xlink:href="#DejaVuSerif-41" transform="translate(155.46875 0)"/>
     <use xlink:href="#DejaVuSerif-4d" transform="translate(227.685547 0)"/>
    </g>
   </g>
   <g id="text_47">
    <!-- 65.2% -->
    <g style="fill: #ffffff" transform="translate(958.513645 419.07195) scale(0.14 -0.14)">
     <defs>
      <path id="DejaVuSerif-Bold-36" d="M 1575 2766 
Q 1778 2928 2029 3009 
Q 2281 3091 2578 3091 
Q 3294 3091 3701 2672 
Q 4109 2253 4109 1522 
Q 4109 750 3650 329 
Q 3191 -91 2344 -91 
Q 1388 -91 895 486 
Q 403 1063 403 2181 
Q 403 3453 950 4101 
Q 1497 4750 2572 4750 
Q 2853 4750 3175 4703 
Q 3497 4656 3866 4563 
L 3866 3738 
L 3488 3738 
Q 3409 4056 3192 4220 
Q 2975 4384 2631 4384 
Q 2075 4384 1826 4003 
Q 1578 3622 1575 2766 
z
M 2272 275 
Q 2594 275 2731 548 
Q 2869 822 2869 1497 
Q 2869 2172 2731 2445 
Q 2594 2719 2272 2719 
Q 1950 2719 1814 2445 
Q 1678 2172 1678 1497 
Q 1678 822 1814 548 
Q 1950 275 2272 275 
z
" transform="scale(0.015625)"/>
     </defs>
     <use xlink:href="#DejaVuSerif-Bold-36"/>
     <use xlink:href="#DejaVuSerif-Bold-35" transform="translate(69.580078 0)"/>
     <use xlink:href="#DejaVuSerif-Bold-2e" transform="translate(139.160156 0)"/>
     <use xlink:href="#DejaVuSerif-Bold-32" transform="translate(173.974609 0)"/>
     <use xlink:href="#DejaVuSerif-Bold-25" transform="translate(243.554688 0)"/>
    </g>
   </g>
   <g id="text_48">
    <!-- Packages -->
    <g transform="translate(1059.823324 341.945091) scale(0.14 -0.14)">
     <use xlink:href="#DejaVuSerif-50"/>
     <use xlink:href="#DejaVuSerif-61" transform="translate(62.785156 0)"/>
     <use xlink:href="#DejaVuSerif-63" transform="translate(122.404297 0)"/>
     <use xlink:href="#DejaVuSerif-6b" transform="translate(178.410156 0)"/>
     <use xlink:href="#DejaVuSerif-61" transform="translate(239.005859 0)"/>
     <use xlink:href="#DejaVuSerif-67" transform="translate(298.625 0)"/>
     <use xlink:href="#DejaVuSerif-65" transform="translate(362.638672 0)"/>
     <use xlink:href="#DejaVuSerif-73" transform="translate(421.818359 0)"/>
    </g>
   </g>
   <g id="text_49">
    <!-- 27.6% -->
    <g style="fill: #ffffff" transform="translate(1011.43335 362.942281) scale(0.14 -0.14)">
     <use xlink:href="#DejaVuSerif-Bold-32"/>
     <use xlink:href="#DejaVuSerif-Bold-37" transform="translate(69.580078 0)"/>
     <use xlink:href="#DejaVuSerif-Bold-2e" transform="translate(139.160156 0)"/>
     <use xlink:href="#DejaVuSerif-Bold-36" transform="translate(173.974609 0)"/>
     <use xlink:href="#DejaVuSerif-Bold-25" transform="translate(243.554688 0)"/>
    </g>
   </g>
   <g id="text_50">
    <!-- (e) -->
    <g transform="translate(842.6688 306.551158) scale(0.14 -0.14)">
     <defs>
      <path id="DejaVuSerif-Bold-65" d="M 2566 1875 
Q 2566 2531 2444 2795 
Q 2322 3059 2028 3059 
Q 1744 3059 1620 2800 
Q 1497 2541 1497 1931 
L 1497 1875 
L 2566 1875 
z
M 3781 1503 
L 1497 1503 
L 1497 1478 
Q 1497 834 1690 548 
Q 1884 263 2316 263 
Q 2675 263 2897 453 
Q 3119 644 3181 1006 
L 3700 1006 
Q 3566 441 3166 175 
Q 2766 -91 2047 -91 
Q 1184 -91 723 364 
Q 263 819 263 1663 
Q 263 2488 734 2950 
Q 1206 3413 2047 3413 
Q 2872 3413 3312 2927 
Q 3753 2441 3781 1503 
z
" transform="scale(0.015625)"/>
     </defs>
     <use xlink:href="#DejaVuSerif-Bold-28"/>
     <use xlink:href="#DejaVuSerif-Bold-65" transform="translate(47.314453 0)"/>
     <use xlink:href="#DejaVuSerif-Bold-29" transform="translate(110.9375 0)"/>
    </g>
   </g>
  </g>
 </g>
 <defs>
  <clipPath id="pe521ec2a1e">
   <rect x="109.008" y="32.570341" width="461.592" height="212.432942"/>
  </clipPath>
  <clipPath id="pfef7b8767d">
   <rect x="109.008" y="312.99263" width="271.392" height="142.32737"/>
  </clipPath>
  <clipPath id="p572ef747a5">
   <rect x="489.408" y="312.99263" width="271.392" height="142.32737"/>
  </clipPath>
 </defs>
</svg>
