<?xml version="1.0" encoding="utf-8" standalone="no"?>
<!DOCTYPE svg PUBLIC "-//W3C//DTD SVG 1.1//EN"
  "http://www.w3.org/Graphics/SVG/1.1/DTD/svg11.dtd">
<svg xmlns:xlink="http://www.w3.org/1999/xlink" width="360pt" height="216pt" viewBox="0 0 360 216" xmlns="http://www.w3.org/2000/svg" version="1.1">
 <metadata>
  <rdf:RDF xmlns:dc="http://purl.org/dc/elements/1.1/" xmlns:cc="http://creativecommons.org/ns#" xmlns:rdf="http://www.w3.org/1999/02/22-rdf-syntax-ns#">
   <cc:Work>
    <dc:type rdf:resource="http://purl.org/dc/dcmitype/StillImage"/>
    <dc:date>2025-05-06T00:57:44.837650</dc:date>
    <dc:format>image/svg+xml</dc:format>
    <dc:creator>
     <cc:Agent>
      <dc:title>Matplotlib v3.10.1, https://matplotlib.org/</dc:title>
     </cc:Agent>
    </dc:creator>
   </cc:Work>
  </rdf:RDF>
 </metadata>
 <defs>
  <style type="text/css">*{stroke-linejoin: round; stroke-linecap: butt}</style>
 </defs>
 <g id="figure_1">
  <g id="patch_1">
   <path d="M 0 216 
L 360 216 
L 360 0 
L 0 0 
z
" style="fill: #ffffff"/>
  </g>
  <g id="axes_1">
   <g id="patch_2">
    <path d="M 52.77875 170.4625 
L 276.9 170.4625 
L 276.9 10.8 
L 52.77875 10.8 
z
" style="fill: #ffffff"/>
   </g>
   <g id="matplotlib.axis_1">
    <g id="xtick_1">
     <g id="line2d_1">
      <path d="M 83.340739 170.4625 
L 83.340739 10.8 
" clip-path="url(#pab1e89b9ce)" style="fill: none; stroke-dasharray: 1.85,0.8; stroke-dashoffset: 0; stroke: #b0b0b0; stroke-opacity: 0.7; stroke-width: 0.5"/>
     </g>
     <g id="line2d_2">
      <defs>
       <path id="m9543a03dc1" d="M 0 0 
L 0 3.5 
" style="stroke: #000000; stroke-width: 0.8"/>
      </defs>
      <g>
       <use xlink:href="#m9543a03dc1" x="83.340739" y="170.4625" style="stroke: #000000; stroke-width: 0.8"/>
      </g>
     </g>
     <g id="text_1">
      <!-- 0.6 -->
      <g transform="translate(73.798864 186.580625) scale(0.12 -0.12)">
       <defs>
        <path id="DejaVuSerif-30" d="M 2034 219 
Q 2513 219 2750 744 
Q 2988 1269 2988 2328 
Q 2988 3391 2750 3916 
Q 2513 4441 2034 4441 
Q 1556 4441 1318 3916 
Q 1081 3391 1081 2328 
Q 1081 1269 1318 744 
Q 1556 219 2034 219 
z
M 2034 -91 
Q 1275 -91 848 546 
Q 422 1184 422 2328 
Q 422 3475 848 4112 
Q 1275 4750 2034 4750 
Q 2797 4750 3222 4112 
Q 3647 3475 3647 2328 
Q 3647 1184 3222 546 
Q 2797 -91 2034 -91 
z
" transform="scale(0.015625)"/>
        <path id="DejaVuSerif-2e" d="M 603 325 
Q 603 500 722 622 
Q 841 744 1019 744 
Q 1191 744 1312 622 
Q 1434 500 1434 325 
Q 1434 153 1312 31 
Q 1191 -91 1019 -91 
Q 841 -91 722 29 
Q 603 150 603 325 
z
" transform="scale(0.015625)"/>
        <path id="DejaVuSerif-36" d="M 2094 219 
Q 2534 219 2771 542 
Q 3009 866 3009 1472 
Q 3009 2078 2771 2401 
Q 2534 2725 2094 2725 
Q 1647 2725 1412 2412 
Q 1178 2100 1178 1509 
Q 1178 888 1415 553 
Q 1653 219 2094 219 
z
M 1075 2569 
Q 1288 2803 1556 2918 
Q 1825 3034 2163 3034 
Q 2859 3034 3264 2615 
Q 3669 2197 3669 1472 
Q 3669 763 3233 336 
Q 2797 -91 2069 -91 
Q 1278 -91 853 498 
Q 428 1088 428 2181 
Q 428 3406 931 4078 
Q 1434 4750 2350 4750 
Q 2597 4750 2869 4703 
Q 3141 4656 3425 4563 
L 3425 3794 
L 3072 3794 
Q 3034 4109 2831 4275 
Q 2628 4441 2284 4441 
Q 1678 4441 1381 3981 
Q 1084 3522 1075 2569 
z
" transform="scale(0.015625)"/>
       </defs>
       <use xlink:href="#DejaVuSerif-30"/>
       <use xlink:href="#DejaVuSerif-2e" transform="translate(63.623047 0)"/>
       <use xlink:href="#DejaVuSerif-36" transform="translate(95.410156 0)"/>
      </g>
     </g>
    </g>
    <g id="xtick_2">
     <g id="line2d_3">
      <path d="M 124.090057 170.4625 
L 124.090057 10.8 
" clip-path="url(#pab1e89b9ce)" style="fill: none; stroke-dasharray: 1.85,0.8; stroke-dashoffset: 0; stroke: #b0b0b0; stroke-opacity: 0.7; stroke-width: 0.5"/>
     </g>
     <g id="line2d_4">
      <g>
       <use xlink:href="#m9543a03dc1" x="124.090057" y="170.4625" style="stroke: #000000; stroke-width: 0.8"/>
      </g>
     </g>
     <g id="text_2">
      <!-- 0.8 -->
      <g transform="translate(114.548182 186.580625) scale(0.12 -0.12)">
       <defs>
        <path id="DejaVuSerif-38" d="M 2981 1275 
Q 2981 1775 2732 2051 
Q 2484 2328 2034 2328 
Q 1584 2328 1336 2051 
Q 1088 1775 1088 1275 
Q 1088 772 1336 495 
Q 1584 219 2034 219 
Q 2484 219 2732 495 
Q 2981 772 2981 1275 
z
M 2853 3541 
Q 2853 3966 2637 4203 
Q 2422 4441 2034 4441 
Q 1650 4441 1433 4203 
Q 1216 3966 1216 3541 
Q 1216 3113 1433 2875 
Q 1650 2638 2034 2638 
Q 2422 2638 2637 2875 
Q 2853 3113 2853 3541 
z
M 2516 2484 
Q 3047 2413 3344 2092 
Q 3641 1772 3641 1275 
Q 3641 619 3225 264 
Q 2809 -91 2034 -91 
Q 1263 -91 845 264 
Q 428 619 428 1275 
Q 428 1772 725 2092 
Q 1022 2413 1556 2484 
Q 1084 2569 832 2842 
Q 581 3116 581 3541 
Q 581 4103 968 4426 
Q 1356 4750 2034 4750 
Q 2713 4750 3100 4426 
Q 3488 4103 3488 3541 
Q 3488 3116 3236 2842 
Q 2984 2569 2516 2484 
z
" transform="scale(0.015625)"/>
       </defs>
       <use xlink:href="#DejaVuSerif-30"/>
       <use xlink:href="#DejaVuSerif-2e" transform="translate(63.623047 0)"/>
       <use xlink:href="#DejaVuSerif-38" transform="translate(95.410156 0)"/>
      </g>
     </g>
    </g>
    <g id="xtick_3">
     <g id="line2d_5">
      <path d="M 164.839375 170.4625 
L 164.839375 10.8 
" clip-path="url(#pab1e89b9ce)" style="fill: none; stroke-dasharray: 1.85,0.8; stroke-dashoffset: 0; stroke: #b0b0b0; stroke-opacity: 0.7; stroke-width: 0.5"/>
     </g>
     <g id="line2d_6">
      <g>
       <use xlink:href="#m9543a03dc1" x="164.839375" y="170.4625" style="stroke: #000000; stroke-width: 0.8"/>
      </g>
     </g>
     <g id="text_3">
      <!-- 1.0 -->
      <g transform="translate(155.2975 186.580625) scale(0.12 -0.12)">
       <defs>
        <path id="DejaVuSerif-31" d="M 909 0 
L 909 331 
L 1722 331 
L 1722 4213 
L 781 3603 
L 781 4013 
L 1919 4750 
L 2350 4750 
L 2350 331 
L 3163 331 
L 3163 0 
L 909 0 
z
" transform="scale(0.015625)"/>
       </defs>
       <use xlink:href="#DejaVuSerif-31"/>
       <use xlink:href="#DejaVuSerif-2e" transform="translate(63.623047 0)"/>
       <use xlink:href="#DejaVuSerif-30" transform="translate(95.410156 0)"/>
      </g>
     </g>
    </g>
    <g id="xtick_4">
     <g id="line2d_7">
      <path d="M 205.588693 170.4625 
L 205.588693 10.8 
" clip-path="url(#pab1e89b9ce)" style="fill: none; stroke-dasharray: 1.85,0.8; stroke-dashoffset: 0; stroke: #b0b0b0; stroke-opacity: 0.7; stroke-width: 0.5"/>
     </g>
     <g id="line2d_8">
      <g>
       <use xlink:href="#m9543a03dc1" x="205.588693" y="170.4625" style="stroke: #000000; stroke-width: 0.8"/>
      </g>
     </g>
     <g id="text_4">
      <!-- 1.2 -->
      <g transform="translate(196.046818 186.580625) scale(0.12 -0.12)">
       <defs>
        <path id="DejaVuSerif-32" d="M 819 3553 
L 469 3553 
L 469 4384 
Q 803 4563 1142 4656 
Q 1481 4750 1806 4750 
Q 2534 4750 2956 4397 
Q 3378 4044 3378 3438 
Q 3378 2753 2422 1800 
Q 2347 1728 2309 1691 
L 1131 513 
L 3078 513 
L 3078 1088 
L 3444 1088 
L 3444 0 
L 434 0 
L 434 341 
L 1850 1753 
Q 2319 2222 2519 2614 
Q 2719 3006 2719 3438 
Q 2719 3909 2473 4175 
Q 2228 4441 1797 4441 
Q 1350 4441 1106 4219 
Q 863 3997 819 3553 
z
" transform="scale(0.015625)"/>
       </defs>
       <use xlink:href="#DejaVuSerif-31"/>
       <use xlink:href="#DejaVuSerif-2e" transform="translate(63.623047 0)"/>
       <use xlink:href="#DejaVuSerif-32" transform="translate(95.410156 0)"/>
      </g>
     </g>
    </g>
    <g id="xtick_5">
     <g id="line2d_9">
      <path d="M 246.338011 170.4625 
L 246.338011 10.8 
" clip-path="url(#pab1e89b9ce)" style="fill: none; stroke-dasharray: 1.85,0.8; stroke-dashoffset: 0; stroke: #b0b0b0; stroke-opacity: 0.7; stroke-width: 0.5"/>
     </g>
     <g id="line2d_10">
      <g>
       <use xlink:href="#m9543a03dc1" x="246.338011" y="170.4625" style="stroke: #000000; stroke-width: 0.8"/>
      </g>
     </g>
     <g id="text_5">
      <!-- 1.4 -->
      <g transform="translate(236.796136 186.580625) scale(0.12 -0.12)">
       <defs>
        <path id="DejaVuSerif-34" d="M 2234 1581 
L 2234 4063 
L 641 1581 
L 2234 1581 
z
M 3609 0 
L 1484 0 
L 1484 331 
L 2234 331 
L 2234 1247 
L 197 1247 
L 197 1588 
L 2241 4750 
L 2859 4750 
L 2859 1581 
L 3750 1581 
L 3750 1247 
L 2859 1247 
L 2859 331 
L 3609 331 
L 3609 0 
z
" transform="scale(0.015625)"/>
       </defs>
       <use xlink:href="#DejaVuSerif-31"/>
       <use xlink:href="#DejaVuSerif-2e" transform="translate(63.623047 0)"/>
       <use xlink:href="#DejaVuSerif-34" transform="translate(95.410156 0)"/>
      </g>
     </g>
    </g>
    <g id="text_6">
     <!-- Global Buffer (kB) -->
     <g transform="translate(109.5025 202.194375) scale(0.12 -0.12)">
      <defs>
       <path id="DejaVuSerif-47" d="M 4097 3272 
Q 3988 3856 3641 4136 
Q 3294 4416 2675 4416 
Q 1869 4416 1472 3897 
Q 1075 3378 1075 2328 
Q 1075 1300 1484 772 
Q 1894 244 2688 244 
Q 3041 244 3362 331 
Q 3684 419 3975 594 
L 3975 1797 
L 3097 1797 
L 3097 2131 
L 4609 2131 
L 4609 391 
Q 4194 150 3714 29 
Q 3234 -91 2688 -91 
Q 1631 -91 995 570 
Q 359 1231 359 2328 
Q 359 3434 996 4092 
Q 1634 4750 2713 4750 
Q 3113 4750 3539 4658 
Q 3966 4566 4447 4378 
L 4447 3272 
L 4097 3272 
z
" transform="scale(0.015625)"/>
       <path id="DejaVuSerif-6c" d="M 1313 331 
L 1856 331 
L 1856 0 
L 184 0 
L 184 331 
L 738 331 
L 738 4531 
L 184 4531 
L 184 4863 
L 1313 4863 
L 1313 331 
z
" transform="scale(0.015625)"/>
       <path id="DejaVuSerif-6f" d="M 1925 219 
Q 2388 219 2623 584 
Q 2859 950 2859 1663 
Q 2859 2375 2623 2739 
Q 2388 3103 1925 3103 
Q 1463 3103 1227 2739 
Q 991 2375 991 1663 
Q 991 950 1228 584 
Q 1466 219 1925 219 
z
M 1925 -91 
Q 1200 -91 759 389 
Q 319 869 319 1663 
Q 319 2456 758 2934 
Q 1197 3413 1925 3413 
Q 2653 3413 3092 2934 
Q 3531 2456 3531 1663 
Q 3531 869 3092 389 
Q 2653 -91 1925 -91 
z
" transform="scale(0.015625)"/>
       <path id="DejaVuSerif-62" d="M 738 331 
L 738 4531 
L 184 4531 
L 184 4863 
L 1313 4863 
L 1313 2803 
Q 1481 3116 1742 3264 
Q 2003 3413 2388 3413 
Q 3000 3413 3387 2928 
Q 3775 2444 3775 1663 
Q 3775 881 3387 395 
Q 3000 -91 2388 -91 
Q 2003 -91 1742 57 
Q 1481 206 1313 519 
L 1313 0 
L 184 0 
L 184 331 
L 738 331 
z
M 1313 1497 
Q 1313 897 1542 583 
Q 1772 269 2209 269 
Q 2650 269 2876 622 
Q 3103 975 3103 1663 
Q 3103 2353 2876 2703 
Q 2650 3053 2209 3053 
Q 1772 3053 1542 2737 
Q 1313 2422 1313 1825 
L 1313 1497 
z
" transform="scale(0.015625)"/>
       <path id="DejaVuSerif-61" d="M 2547 1044 
L 2547 1747 
L 1806 1747 
Q 1378 1747 1168 1562 
Q 959 1378 959 997 
Q 959 650 1171 447 
Q 1384 244 1747 244 
Q 2106 244 2326 466 
Q 2547 688 2547 1044 
z
M 3122 2075 
L 3122 331 
L 3634 331 
L 3634 0 
L 2547 0 
L 2547 359 
Q 2356 128 2106 18 
Q 1856 -91 1522 -91 
Q 969 -91 644 203 
Q 319 497 319 997 
Q 319 1513 691 1797 
Q 1063 2081 1741 2081 
L 2547 2081 
L 2547 2309 
Q 2547 2688 2317 2895 
Q 2088 3103 1672 3103 
Q 1328 3103 1125 2947 
Q 922 2791 872 2484 
L 575 2484 
L 575 3156 
Q 875 3284 1158 3348 
Q 1441 3413 1709 3413 
Q 2400 3413 2761 3070 
Q 3122 2728 3122 2075 
z
" transform="scale(0.015625)"/>
       <path id="DejaVuSerif-20" transform="scale(0.015625)"/>
       <path id="DejaVuSerif-42" d="M 1581 331 
L 2516 331 
Q 3078 331 3337 575 
Q 3597 819 3597 1350 
Q 3597 1878 3339 2120 
Q 3081 2363 2516 2363 
L 1581 2363 
L 1581 331 
z
M 1581 2694 
L 2375 2694 
Q 2888 2694 3123 2891 
Q 3359 3088 3359 3513 
Q 3359 3941 3123 4136 
Q 2888 4331 2375 4331 
L 1581 4331 
L 1581 2694 
z
M 353 0 
L 353 331 
L 947 331 
L 947 4331 
L 353 4331 
L 353 4666 
L 2656 4666 
Q 3363 4666 3720 4377 
Q 4078 4088 4078 3513 
Q 4078 3097 3829 2850 
Q 3581 2603 3103 2547 
Q 3697 2472 4005 2167 
Q 4313 1863 4313 1350 
Q 4313 656 3875 328 
Q 3438 0 2509 0 
L 353 0 
z
" transform="scale(0.015625)"/>
       <path id="DejaVuSerif-75" d="M 2266 3322 
L 3341 3322 
L 3341 331 
L 3884 331 
L 3884 0 
L 2766 0 
L 2766 588 
Q 2606 256 2353 82 
Q 2100 -91 1766 -91 
Q 1213 -91 952 223 
Q 691 538 691 1209 
L 691 2988 
L 172 2988 
L 172 3322 
L 1269 3322 
L 1269 1388 
Q 1269 781 1417 556 
Q 1566 331 1947 331 
Q 2347 331 2556 625 
Q 2766 919 2766 1478 
L 2766 2988 
L 2266 2988 
L 2266 3322 
z
" transform="scale(0.015625)"/>
       <path id="DejaVuSerif-66" d="M 2753 4078 
L 2450 4078 
Q 2447 4313 2317 4434 
Q 2188 4556 1941 4556 
Q 1619 4556 1487 4379 
Q 1356 4203 1356 3750 
L 1356 3322 
L 2284 3322 
L 2284 2988 
L 1356 2988 
L 1356 331 
L 2094 331 
L 2094 0 
L 231 0 
L 231 331 
L 781 331 
L 781 2988 
L 231 2988 
L 231 3322 
L 781 3322 
L 781 3738 
Q 781 4294 1070 4578 
Q 1359 4863 1919 4863 
Q 2128 4863 2337 4825 
Q 2547 4788 2753 4709 
L 2753 4078 
z
" transform="scale(0.015625)"/>
       <path id="DejaVuSerif-65" d="M 3469 1600 
L 991 1600 
L 991 1575 
Q 991 903 1244 561 
Q 1497 219 1991 219 
Q 2369 219 2611 417 
Q 2853 616 2950 1006 
L 3413 1006 
Q 3275 459 2904 184 
Q 2534 -91 1931 -91 
Q 1203 -91 761 389 
Q 319 869 319 1663 
Q 319 2450 753 2931 
Q 1188 3413 1894 3413 
Q 2647 3413 3050 2948 
Q 3453 2484 3469 1600 
z
M 2791 1931 
Q 2772 2513 2545 2808 
Q 2319 3103 1894 3103 
Q 1497 3103 1269 2806 
Q 1041 2509 991 1931 
L 2791 1931 
z
" transform="scale(0.015625)"/>
       <path id="DejaVuSerif-72" d="M 3059 3328 
L 3059 2497 
L 2728 2497 
Q 2713 2744 2591 2866 
Q 2469 2988 2234 2988 
Q 1809 2988 1582 2694 
Q 1356 2400 1356 1850 
L 1356 331 
L 2022 331 
L 2022 0 
L 263 0 
L 263 331 
L 781 331 
L 781 2994 
L 231 2994 
L 231 3322 
L 1356 3322 
L 1356 2731 
Q 1525 3078 1790 3245 
Q 2056 3413 2438 3413 
Q 2578 3413 2733 3391 
Q 2888 3369 3059 3328 
z
" transform="scale(0.015625)"/>
       <path id="DejaVuSerif-28" d="M 2041 -997 
Q 1281 -656 893 83 
Q 506 822 506 1931 
Q 506 3044 893 3783 
Q 1281 4522 2041 4863 
L 2041 4556 
Q 1559 4225 1350 3623 
Q 1141 3022 1141 1931 
Q 1141 844 1350 242 
Q 1559 -359 2041 -691 
L 2041 -997 
z
" transform="scale(0.015625)"/>
       <path id="DejaVuSerif-6b" d="M 1831 0 
L 219 0 
L 219 331 
L 738 331 
L 738 4531 
L 184 4531 
L 184 4863 
L 1313 4863 
L 1313 1697 
L 2713 2988 
L 2234 2988 
L 2234 3322 
L 3738 3322 
L 3738 2988 
L 3169 2988 
L 2181 2075 
L 3444 331 
L 3922 331 
L 3922 0 
L 2284 0 
L 2284 331 
L 2759 331 
L 1766 1697 
L 1313 1275 
L 1313 331 
L 1831 331 
L 1831 0 
z
" transform="scale(0.015625)"/>
       <path id="DejaVuSerif-29" d="M 453 -997 
L 453 -691 
Q 934 -359 1145 242 
Q 1356 844 1356 1931 
Q 1356 3022 1145 3623 
Q 934 4225 453 4556 
L 453 4863 
Q 1216 4522 1603 3783 
Q 1991 3044 1991 1931 
Q 1991 822 1603 83 
Q 1216 -656 453 -997 
z
" transform="scale(0.015625)"/>
      </defs>
      <use xlink:href="#DejaVuSerif-47"/>
      <use xlink:href="#DejaVuSerif-6c" transform="translate(79.882812 0)"/>
      <use xlink:href="#DejaVuSerif-6f" transform="translate(111.865234 0)"/>
      <use xlink:href="#DejaVuSerif-62" transform="translate(172.070312 0)"/>
      <use xlink:href="#DejaVuSerif-61" transform="translate(236.083984 0)"/>
      <use xlink:href="#DejaVuSerif-6c" transform="translate(295.703125 0)"/>
      <use xlink:href="#DejaVuSerif-20" transform="translate(327.685547 0)"/>
      <use xlink:href="#DejaVuSerif-42" transform="translate(359.472656 0)"/>
      <use xlink:href="#DejaVuSerif-75" transform="translate(432.958984 0)"/>
      <use xlink:href="#DejaVuSerif-66" transform="translate(497.363281 0)"/>
      <use xlink:href="#DejaVuSerif-66" transform="translate(534.375 0)"/>
      <use xlink:href="#DejaVuSerif-65" transform="translate(571.386719 0)"/>
      <use xlink:href="#DejaVuSerif-72" transform="translate(630.566406 0)"/>
      <use xlink:href="#DejaVuSerif-20" transform="translate(678.369141 0)"/>
      <use xlink:href="#DejaVuSerif-28" transform="translate(710.15625 0)"/>
      <use xlink:href="#DejaVuSerif-6b" transform="translate(749.169922 0)"/>
      <use xlink:href="#DejaVuSerif-42" transform="translate(809.765625 0)"/>
      <use xlink:href="#DejaVuSerif-29" transform="translate(883.251953 0)"/>
     </g>
    </g>
   </g>
   <g id="matplotlib.axis_2">
    <g id="ytick_1">
     <g id="line2d_11">
      <path d="M 52.77875 163.205114 
L 276.9 163.205114 
" clip-path="url(#pab1e89b9ce)" style="fill: none; stroke-dasharray: 1.85,0.8; stroke-dashoffset: 0; stroke: #b0b0b0; stroke-opacity: 0.7; stroke-width: 0.5"/>
     </g>
     <g id="line2d_12">
      <defs>
       <path id="m449803ead9" d="M 0 0 
L -3.5 0 
" style="stroke: #000000; stroke-width: 0.8"/>
      </defs>
      <g>
       <use xlink:href="#m449803ead9" x="52.77875" y="163.205114" style="stroke: #000000; stroke-width: 0.8"/>
      </g>
     </g>
     <g id="text_7">
      <!-- 0.0 -->
      <g transform="translate(26.695 167.764176) scale(0.12 -0.12)">
       <use xlink:href="#DejaVuSerif-30"/>
       <use xlink:href="#DejaVuSerif-2e" transform="translate(63.623047 0)"/>
       <use xlink:href="#DejaVuSerif-30" transform="translate(95.410156 0)"/>
      </g>
     </g>
    </g>
    <g id="ytick_2">
     <g id="line2d_13">
      <path d="M 52.77875 134.175568 
L 276.9 134.175568 
" clip-path="url(#pab1e89b9ce)" style="fill: none; stroke-dasharray: 1.85,0.8; stroke-dashoffset: 0; stroke: #b0b0b0; stroke-opacity: 0.7; stroke-width: 0.5"/>
     </g>
     <g id="line2d_14">
      <g>
       <use xlink:href="#m449803ead9" x="52.77875" y="134.175568" style="stroke: #000000; stroke-width: 0.8"/>
      </g>
     </g>
     <g id="text_8">
      <!-- 0.2 -->
      <g transform="translate(26.695 138.734631) scale(0.12 -0.12)">
       <use xlink:href="#DejaVuSerif-30"/>
       <use xlink:href="#DejaVuSerif-2e" transform="translate(63.623047 0)"/>
       <use xlink:href="#DejaVuSerif-32" transform="translate(95.410156 0)"/>
      </g>
     </g>
    </g>
    <g id="ytick_3">
     <g id="line2d_15">
      <path d="M 52.77875 105.146023 
L 276.9 105.146023 
" clip-path="url(#pab1e89b9ce)" style="fill: none; stroke-dasharray: 1.85,0.8; stroke-dashoffset: 0; stroke: #b0b0b0; stroke-opacity: 0.7; stroke-width: 0.5"/>
     </g>
     <g id="line2d_16">
      <g>
       <use xlink:href="#m449803ead9" x="52.77875" y="105.146023" style="stroke: #000000; stroke-width: 0.8"/>
      </g>
     </g>
     <g id="text_9">
      <!-- 0.4 -->
      <g transform="translate(26.695 109.705085) scale(0.12 -0.12)">
       <use xlink:href="#DejaVuSerif-30"/>
       <use xlink:href="#DejaVuSerif-2e" transform="translate(63.623047 0)"/>
       <use xlink:href="#DejaVuSerif-34" transform="translate(95.410156 0)"/>
      </g>
     </g>
    </g>
    <g id="ytick_4">
     <g id="line2d_17">
      <path d="M 52.77875 76.116477 
L 276.9 76.116477 
" clip-path="url(#pab1e89b9ce)" style="fill: none; stroke-dasharray: 1.85,0.8; stroke-dashoffset: 0; stroke: #b0b0b0; stroke-opacity: 0.7; stroke-width: 0.5"/>
     </g>
     <g id="line2d_18">
      <g>
       <use xlink:href="#m449803ead9" x="52.77875" y="76.116477" style="stroke: #000000; stroke-width: 0.8"/>
      </g>
     </g>
     <g id="text_10">
      <!-- 0.6 -->
      <g transform="translate(26.695 80.67554) scale(0.12 -0.12)">
       <use xlink:href="#DejaVuSerif-30"/>
       <use xlink:href="#DejaVuSerif-2e" transform="translate(63.623047 0)"/>
       <use xlink:href="#DejaVuSerif-36" transform="translate(95.410156 0)"/>
      </g>
     </g>
    </g>
    <g id="ytick_5">
     <g id="line2d_19">
      <path d="M 52.77875 47.086932 
L 276.9 47.086932 
" clip-path="url(#pab1e89b9ce)" style="fill: none; stroke-dasharray: 1.85,0.8; stroke-dashoffset: 0; stroke: #b0b0b0; stroke-opacity: 0.7; stroke-width: 0.5"/>
     </g>
     <g id="line2d_20">
      <g>
       <use xlink:href="#m449803ead9" x="52.77875" y="47.086932" style="stroke: #000000; stroke-width: 0.8"/>
      </g>
     </g>
     <g id="text_11">
      <!-- 0.8 -->
      <g transform="translate(26.695 51.645994) scale(0.12 -0.12)">
       <use xlink:href="#DejaVuSerif-30"/>
       <use xlink:href="#DejaVuSerif-2e" transform="translate(63.623047 0)"/>
       <use xlink:href="#DejaVuSerif-38" transform="translate(95.410156 0)"/>
      </g>
     </g>
    </g>
    <g id="ytick_6">
     <g id="line2d_21">
      <path d="M 52.77875 18.057386 
L 276.9 18.057386 
" clip-path="url(#pab1e89b9ce)" style="fill: none; stroke-dasharray: 1.85,0.8; stroke-dashoffset: 0; stroke: #b0b0b0; stroke-opacity: 0.7; stroke-width: 0.5"/>
     </g>
     <g id="line2d_22">
      <g>
       <use xlink:href="#m449803ead9" x="52.77875" y="18.057386" style="stroke: #000000; stroke-width: 0.8"/>
      </g>
     </g>
     <g id="text_12">
      <!-- 1.0 -->
      <g transform="translate(26.695 22.616449) scale(0.12 -0.12)">
       <use xlink:href="#DejaVuSerif-31"/>
       <use xlink:href="#DejaVuSerif-2e" transform="translate(63.623047 0)"/>
       <use xlink:href="#DejaVuSerif-30" transform="translate(95.410156 0)"/>
      </g>
     </g>
    </g>
    <g id="text_13">
     <!-- Normalized Value -->
     <g transform="translate(20.199375 144.624687) rotate(-90) scale(0.12 -0.12)">
      <defs>
       <path id="DejaVuSerif-4e" d="M 313 0 
L 313 331 
L 941 331 
L 941 4331 
L 313 4331 
L 313 4666 
L 1509 4666 
L 4306 984 
L 4306 4331 
L 3681 4331 
L 3681 4666 
L 5319 4666 
L 5319 4331 
L 4691 4331 
L 4691 -91 
L 4313 -91 
L 1325 3841 
L 1325 331 
L 1953 331 
L 1953 0 
L 313 0 
z
" transform="scale(0.015625)"/>
       <path id="DejaVuSerif-6d" d="M 3316 2675 
Q 3481 3041 3739 3227 
Q 3997 3413 4341 3413 
Q 4863 3413 5119 3089 
Q 5375 2766 5375 2113 
L 5375 331 
L 5894 331 
L 5894 0 
L 4300 0 
L 4300 331 
L 4800 331 
L 4800 2047 
Q 4800 2556 4650 2772 
Q 4500 2988 4153 2988 
Q 3769 2988 3567 2697 
Q 3366 2406 3366 1850 
L 3366 331 
L 3866 331 
L 3866 0 
L 2291 0 
L 2291 331 
L 2791 331 
L 2791 2069 
Q 2791 2566 2641 2777 
Q 2491 2988 2144 2988 
Q 1759 2988 1557 2697 
Q 1356 2406 1356 1850 
L 1356 331 
L 1856 331 
L 1856 0 
L 263 0 
L 263 331 
L 781 331 
L 781 2994 
L 231 2994 
L 231 3322 
L 1356 3322 
L 1356 2731 
Q 1516 3063 1762 3238 
Q 2009 3413 2322 3413 
Q 2709 3413 2968 3220 
Q 3228 3028 3316 2675 
z
" transform="scale(0.015625)"/>
       <path id="DejaVuSerif-69" d="M 622 4353 
Q 622 4497 726 4603 
Q 831 4709 978 4709 
Q 1122 4709 1226 4603 
Q 1331 4497 1331 4353 
Q 1331 4206 1228 4103 
Q 1125 4000 978 4000 
Q 831 4000 726 4103 
Q 622 4206 622 4353 
z
M 1356 331 
L 1900 331 
L 1900 0 
L 231 0 
L 231 331 
L 781 331 
L 781 2988 
L 231 2988 
L 231 3322 
L 1356 3322 
L 1356 331 
z
" transform="scale(0.015625)"/>
       <path id="DejaVuSerif-7a" d="M 256 0 
L 256 269 
L 2338 2988 
L 691 2988 
L 691 2413 
L 359 2413 
L 359 3322 
L 3078 3322 
L 3078 3053 
L 997 331 
L 2803 331 
L 2803 934 
L 3138 934 
L 3138 0 
L 256 0 
z
" transform="scale(0.015625)"/>
       <path id="DejaVuSerif-64" d="M 3359 331 
L 3909 331 
L 3909 0 
L 2784 0 
L 2784 519 
Q 2616 206 2355 57 
Q 2094 -91 1709 -91 
Q 1097 -91 708 395 
Q 319 881 319 1663 
Q 319 2444 706 2928 
Q 1094 3413 1709 3413 
Q 2094 3413 2355 3264 
Q 2616 3116 2784 2803 
L 2784 4531 
L 2241 4531 
L 2241 4863 
L 3359 4863 
L 3359 331 
z
M 2784 1497 
L 2784 1825 
Q 2784 2422 2554 2737 
Q 2325 3053 1888 3053 
Q 1444 3053 1217 2703 
Q 991 2353 991 1663 
Q 991 975 1217 622 
Q 1444 269 1888 269 
Q 2325 269 2554 583 
Q 2784 897 2784 1497 
z
" transform="scale(0.015625)"/>
       <path id="DejaVuSerif-56" d="M 1119 4331 
L 2497 750 
L 3872 4331 
L 3347 4331 
L 3347 4666 
L 4716 4666 
L 4716 4331 
L 4263 4331 
L 2597 0 
L 2059 0 
L 403 4331 
L -63 4331 
L -63 4666 
L 1638 4666 
L 1638 4331 
L 1119 4331 
z
" transform="scale(0.015625)"/>
      </defs>
      <use xlink:href="#DejaVuSerif-4e"/>
      <use xlink:href="#DejaVuSerif-6f" transform="translate(87.5 0)"/>
      <use xlink:href="#DejaVuSerif-72" transform="translate(147.705078 0)"/>
      <use xlink:href="#DejaVuSerif-6d" transform="translate(195.507812 0)"/>
      <use xlink:href="#DejaVuSerif-61" transform="translate(290.332031 0)"/>
      <use xlink:href="#DejaVuSerif-6c" transform="translate(349.951172 0)"/>
      <use xlink:href="#DejaVuSerif-69" transform="translate(381.933594 0)"/>
      <use xlink:href="#DejaVuSerif-7a" transform="translate(413.916016 0)"/>
      <use xlink:href="#DejaVuSerif-65" transform="translate(466.601562 0)"/>
      <use xlink:href="#DejaVuSerif-64" transform="translate(525.78125 0)"/>
      <use xlink:href="#DejaVuSerif-20" transform="translate(589.794922 0)"/>
      <use xlink:href="#DejaVuSerif-56" transform="translate(621.582031 0)"/>
      <use xlink:href="#DejaVuSerif-61" transform="translate(684.673828 0)"/>
      <use xlink:href="#DejaVuSerif-6c" transform="translate(744.292969 0)"/>
      <use xlink:href="#DejaVuSerif-75" transform="translate(776.275391 0)"/>
      <use xlink:href="#DejaVuSerif-65" transform="translate(840.679688 0)"/>
     </g>
    </g>
   </g>
   <g id="line2d_23">
    <path d="M 62.96608 89.504445 
L 75.700241 82.84708 
L 88.434403 75.449294 
L 101.168565 85.329402 
L 113.902727 79.508795 
L 126.636889 121.132856 
L 139.371051 117.928835 
L 152.105213 112.336796 
L 164.839375 107.306778 
L 177.573537 163.205114 
L 190.307699 159.475133 
L 203.041861 40.188841 
L 215.776023 35.526673 
L 228.510185 30.866012 
L 241.244347 27.372174 
L 253.978509 22.712169 
L 266.71267 18.057386 
" clip-path="url(#pab1e89b9ce)" style="fill: none; stroke: #003f5c; stroke-width: 2; stroke-linecap: square"/>
    <defs>
     <path id="md8fbc20c09" d="M 0 3 
C 0.795609 3 1.55874 2.683901 2.12132 2.12132 
C 2.683901 1.55874 3 0.795609 3 0 
C 3 -0.795609 2.683901 -1.55874 2.12132 -2.12132 
C 1.55874 -2.683901 0.795609 -3 0 -3 
C -0.795609 -3 -1.55874 -2.683901 -2.12132 -2.12132 
C -2.683901 -1.55874 -3 -0.795609 -3 0 
C -3 0.795609 -2.683901 1.55874 -2.12132 2.12132 
C -1.55874 2.683901 -0.795609 3 0 3 
z
" style="stroke: #003f5c"/>
    </defs>
    <g clip-path="url(#pab1e89b9ce)">
     <use xlink:href="#md8fbc20c09" x="62.96608" y="89.504445" style="fill: #003f5c; stroke: #003f5c"/>
     <use xlink:href="#md8fbc20c09" x="75.700241" y="82.84708" style="fill: #003f5c; stroke: #003f5c"/>
     <use xlink:href="#md8fbc20c09" x="88.434403" y="75.449294" style="fill: #003f5c; stroke: #003f5c"/>
     <use xlink:href="#md8fbc20c09" x="101.168565" y="85.329402" style="fill: #003f5c; stroke: #003f5c"/>
     <use xlink:href="#md8fbc20c09" x="113.902727" y="79.508795" style="fill: #003f5c; stroke: #003f5c"/>
     <use xlink:href="#md8fbc20c09" x="126.636889" y="121.132856" style="fill: #003f5c; stroke: #003f5c"/>
     <use xlink:href="#md8fbc20c09" x="139.371051" y="117.928835" style="fill: #003f5c; stroke: #003f5c"/>
     <use xlink:href="#md8fbc20c09" x="152.105213" y="112.336796" style="fill: #003f5c; stroke: #003f5c"/>
     <use xlink:href="#md8fbc20c09" x="164.839375" y="107.306778" style="fill: #003f5c; stroke: #003f5c"/>
     <use xlink:href="#md8fbc20c09" x="177.573537" y="163.205114" style="fill: #003f5c; stroke: #003f5c"/>
     <use xlink:href="#md8fbc20c09" x="190.307699" y="159.475133" style="fill: #003f5c; stroke: #003f5c"/>
     <use xlink:href="#md8fbc20c09" x="203.041861" y="40.188841" style="fill: #003f5c; stroke: #003f5c"/>
     <use xlink:href="#md8fbc20c09" x="215.776023" y="35.526673" style="fill: #003f5c; stroke: #003f5c"/>
     <use xlink:href="#md8fbc20c09" x="228.510185" y="30.866012" style="fill: #003f5c; stroke: #003f5c"/>
     <use xlink:href="#md8fbc20c09" x="241.244347" y="27.372174" style="fill: #003f5c; stroke: #003f5c"/>
     <use xlink:href="#md8fbc20c09" x="253.978509" y="22.712169" style="fill: #003f5c; stroke: #003f5c"/>
     <use xlink:href="#md8fbc20c09" x="266.71267" y="18.057386" style="fill: #003f5c; stroke: #003f5c"/>
    </g>
   </g>
   <g id="line2d_24">
    <path d="M 62.96608 78.352584 
L 75.700241 72.630272 
L 88.434403 65.708681 
L 101.168565 77.191223 
L 113.902727 71.900646 
L 126.636889 115.467103 
L 139.371051 113.568908 
L 152.105213 108.633655 
L 164.839375 104.182402 
L 177.573537 163.205114 
L 190.307699 160.315145 
L 203.041861 38.088392 
L 215.776023 33.891092 
L 228.510185 29.683458 
L 241.244347 26.520678 
L 253.978509 22.293728 
L 266.71267 18.057386 
" clip-path="url(#pab1e89b9ce)" style="fill: none; stroke: #800020; stroke-width: 2; stroke-linecap: square"/>
    <defs>
     <path id="mf156a6ba19" d="M 0 3 
C 0.795609 3 1.55874 2.683901 2.12132 2.12132 
C 2.683901 1.55874 3 0.795609 3 0 
C 3 -0.795609 2.683901 -1.55874 2.12132 -2.12132 
C 1.55874 -2.683901 0.795609 -3 0 -3 
C -0.795609 -3 -1.55874 -2.683901 -2.12132 -2.12132 
C -2.683901 -1.55874 -3 -0.795609 -3 0 
C -3 0.795609 -2.683901 1.55874 -2.12132 2.12132 
C -1.55874 2.683901 -0.795609 3 0 3 
z
" style="stroke: #800020"/>
    </defs>
    <g clip-path="url(#pab1e89b9ce)">
     <use xlink:href="#mf156a6ba19" x="62.96608" y="78.352584" style="fill: #800020; stroke: #800020"/>
     <use xlink:href="#mf156a6ba19" x="75.700241" y="72.630272" style="fill: #800020; stroke: #800020"/>
     <use xlink:href="#mf156a6ba19" x="88.434403" y="65.708681" style="fill: #800020; stroke: #800020"/>
     <use xlink:href="#mf156a6ba19" x="101.168565" y="77.191223" style="fill: #800020; stroke: #800020"/>
     <use xlink:href="#mf156a6ba19" x="113.902727" y="71.900646" style="fill: #800020; stroke: #800020"/>
     <use xlink:href="#mf156a6ba19" x="126.636889" y="115.467103" style="fill: #800020; stroke: #800020"/>
     <use xlink:href="#mf156a6ba19" x="139.371051" y="113.568908" style="fill: #800020; stroke: #800020"/>
     <use xlink:href="#mf156a6ba19" x="152.105213" y="108.633655" style="fill: #800020; stroke: #800020"/>
     <use xlink:href="#mf156a6ba19" x="164.839375" y="104.182402" style="fill: #800020; stroke: #800020"/>
     <use xlink:href="#mf156a6ba19" x="177.573537" y="163.205114" style="fill: #800020; stroke: #800020"/>
     <use xlink:href="#mf156a6ba19" x="190.307699" y="160.315145" style="fill: #800020; stroke: #800020"/>
     <use xlink:href="#mf156a6ba19" x="203.041861" y="38.088392" style="fill: #800020; stroke: #800020"/>
     <use xlink:href="#mf156a6ba19" x="215.776023" y="33.891092" style="fill: #800020; stroke: #800020"/>
     <use xlink:href="#mf156a6ba19" x="228.510185" y="29.683458" style="fill: #800020; stroke: #800020"/>
     <use xlink:href="#mf156a6ba19" x="241.244347" y="26.520678" style="fill: #800020; stroke: #800020"/>
     <use xlink:href="#mf156a6ba19" x="253.978509" y="22.293728" style="fill: #800020; stroke: #800020"/>
     <use xlink:href="#mf156a6ba19" x="266.71267" y="18.057386" style="fill: #800020; stroke: #800020"/>
    </g>
   </g>
   <g id="line2d_25">
    <path d="M 62.96608 30.955351 
L 75.700241 24.846099 
L 88.434403 18.057386 
L 101.168565 27.124047 
L 113.902727 21.782661 
L 126.636889 59.979736 
L 139.371051 57.039508 
L 152.105213 51.907872 
L 164.839375 47.291985 
L 177.573537 104.083528 
L 190.307699 100.673808 
L 203.041861 163.205114 
L 215.776023 159.419362 
L 228.510185 155.634833 
L 241.244347 152.797782 
L 253.978509 149.013786 
L 266.71267 145.234031 
" clip-path="url(#pab1e89b9ce)" style="fill: none; stroke: #006400; stroke-width: 2; stroke-linecap: square"/>
    <defs>
     <path id="mf70414fd19" d="M 0 3 
C 0.795609 3 1.55874 2.683901 2.12132 2.12132 
C 2.683901 1.55874 3 0.795609 3 0 
C 3 -0.795609 2.683901 -1.55874 2.12132 -2.12132 
C 1.55874 -2.683901 0.795609 -3 0 -3 
C -0.795609 -3 -1.55874 -2.683901 -2.12132 -2.12132 
C -2.683901 -1.55874 -3 -0.795609 -3 0 
C -3 0.795609 -2.683901 1.55874 -2.12132 2.12132 
C -1.55874 2.683901 -0.795609 3 0 3 
z
" style="stroke: #006400"/>
    </defs>
    <g clip-path="url(#pab1e89b9ce)">
     <use xlink:href="#mf70414fd19" x="62.96608" y="30.955351" style="fill: #006400; stroke: #006400"/>
     <use xlink:href="#mf70414fd19" x="75.700241" y="24.846099" style="fill: #006400; stroke: #006400"/>
     <use xlink:href="#mf70414fd19" x="88.434403" y="18.057386" style="fill: #006400; stroke: #006400"/>
     <use xlink:href="#mf70414fd19" x="101.168565" y="27.124047" style="fill: #006400; stroke: #006400"/>
     <use xlink:href="#mf70414fd19" x="113.902727" y="21.782661" style="fill: #006400; stroke: #006400"/>
     <use xlink:href="#mf70414fd19" x="126.636889" y="59.979736" style="fill: #006400; stroke: #006400"/>
     <use xlink:href="#mf70414fd19" x="139.371051" y="57.039508" style="fill: #006400; stroke: #006400"/>
     <use xlink:href="#mf70414fd19" x="152.105213" y="51.907872" style="fill: #006400; stroke: #006400"/>
     <use xlink:href="#mf70414fd19" x="164.839375" y="47.291985" style="fill: #006400; stroke: #006400"/>
     <use xlink:href="#mf70414fd19" x="177.573537" y="104.083528" style="fill: #006400; stroke: #006400"/>
     <use xlink:href="#mf70414fd19" x="190.307699" y="100.673808" style="fill: #006400; stroke: #006400"/>
     <use xlink:href="#mf70414fd19" x="203.041861" y="163.205114" style="fill: #006400; stroke: #006400"/>
     <use xlink:href="#mf70414fd19" x="215.776023" y="159.419362" style="fill: #006400; stroke: #006400"/>
     <use xlink:href="#mf70414fd19" x="228.510185" y="155.634833" style="fill: #006400; stroke: #006400"/>
     <use xlink:href="#mf70414fd19" x="241.244347" y="152.797782" style="fill: #006400; stroke: #006400"/>
     <use xlink:href="#mf70414fd19" x="253.978509" y="149.013786" style="fill: #006400; stroke: #006400"/>
     <use xlink:href="#mf70414fd19" x="266.71267" y="145.234031" style="fill: #006400; stroke: #006400"/>
    </g>
   </g>
   <g id="patch_3">
    <path d="M 52.77875 170.4625 
L 52.77875 10.8 
" style="fill: none; stroke: #000000; stroke-width: 0.8; stroke-linejoin: miter; stroke-linecap: square"/>
   </g>
   <g id="patch_4">
    <path d="M 276.9 170.4625 
L 276.9 10.8 
" style="fill: none; stroke: #000000; stroke-width: 0.8; stroke-linejoin: miter; stroke-linecap: square"/>
   </g>
   <g id="patch_5">
    <path d="M 52.77875 170.4625 
L 276.9 170.4625 
" style="fill: none; stroke: #000000; stroke-width: 0.8; stroke-linejoin: miter; stroke-linecap: square"/>
   </g>
   <g id="patch_6">
    <path d="M 52.77875 10.8 
L 276.9 10.8 
" style="fill: none; stroke: #000000; stroke-width: 0.8; stroke-linejoin: miter; stroke-linecap: square"/>
   </g>
   <g id="legend_1">
    <g id="patch_7">
     <path d="M 290.106063 57.834375 
L 344.502938 57.834375 
Q 346.502938 57.834375 346.502938 55.834375 
L 346.502938 12.8 
Q 346.502938 10.8 344.502938 10.8 
L 290.106063 10.8 
Q 288.106063 10.8 288.106063 12.8 
L 288.106063 55.834375 
Q 288.106063 57.834375 290.106063 57.834375 
z
" style="fill: #ffffff; opacity: 0.8; stroke: #cccccc; stroke-linejoin: miter"/>
    </g>
    <g id="line2d_26">
     <path d="M 292.106063 18.898438 
L 302.106063 18.898438 
L 312.106063 18.898438 
" style="fill: none; stroke: #003f5c; stroke-width: 2; stroke-linecap: square"/>
     <g>
      <use xlink:href="#md8fbc20c09" x="302.106063" y="18.898438" style="fill: #003f5c; stroke: #003f5c"/>
     </g>
    </g>
    <g id="text_14">
     <!-- CF -->
     <g transform="translate(320.106063 22.398438) scale(0.1 -0.1)">
      <defs>
       <path id="DejaVuSerif-43" d="M 4513 1234 
Q 4306 581 3820 245 
Q 3334 -91 2591 -91 
Q 2134 -91 1743 65 
Q 1353 222 1050 525 
Q 700 875 529 1320 
Q 359 1766 359 2328 
Q 359 3416 987 4083 
Q 1616 4750 2644 4750 
Q 3025 4750 3456 4650 
Q 3888 4550 4384 4347 
L 4384 3272 
L 4031 3272 
Q 3916 3859 3567 4137 
Q 3219 4416 2591 4416 
Q 1844 4416 1459 3886 
Q 1075 3356 1075 2328 
Q 1075 1303 1459 773 
Q 1844 244 2591 244 
Q 3113 244 3450 492 
Q 3788 741 3938 1234 
L 4513 1234 
z
" transform="scale(0.015625)"/>
       <path id="DejaVuSerif-46" d="M 353 0 
L 353 331 
L 947 331 
L 947 4331 
L 353 4331 
L 353 4666 
L 4172 4666 
L 4172 3628 
L 3788 3628 
L 3788 4281 
L 1581 4281 
L 1581 2719 
L 3175 2719 
L 3175 3303 
L 3559 3303 
L 3559 1753 
L 3175 1753 
L 3175 2338 
L 1581 2338 
L 1581 331 
L 2328 331 
L 2328 0 
L 353 0 
z
" transform="scale(0.015625)"/>
      </defs>
      <use xlink:href="#DejaVuSerif-43"/>
      <use xlink:href="#DejaVuSerif-46" transform="translate(76.513672 0)"/>
     </g>
    </g>
    <g id="line2d_27">
     <path d="M 292.106063 33.576563 
L 302.106063 33.576563 
L 312.106063 33.576563 
" style="fill: none; stroke: #800020; stroke-width: 2; stroke-linecap: square"/>
     <g>
      <use xlink:href="#mf156a6ba19" x="302.106063" y="33.576563" style="fill: #800020; stroke: #800020"/>
     </g>
    </g>
    <g id="text_15">
     <!-- CEP -->
     <g transform="translate(320.106063 37.076563) scale(0.1 -0.1)">
      <defs>
       <path id="DejaVuSerif-45" d="M 353 0 
L 353 331 
L 947 331 
L 947 4331 
L 353 4331 
L 353 4666 
L 4109 4666 
L 4109 3628 
L 3725 3628 
L 3725 4281 
L 1581 4281 
L 1581 2719 
L 3109 2719 
L 3109 3303 
L 3494 3303 
L 3494 1753 
L 3109 1753 
L 3109 2338 
L 1581 2338 
L 1581 384 
L 3775 384 
L 3775 1038 
L 4159 1038 
L 4159 0 
L 353 0 
z
" transform="scale(0.015625)"/>
       <path id="DejaVuSerif-50" d="M 1581 2375 
L 2406 2375 
Q 2872 2375 3115 2626 
Q 3359 2878 3359 3353 
Q 3359 3831 3115 4081 
Q 2872 4331 2406 4331 
L 1581 4331 
L 1581 2375 
z
M 353 0 
L 353 331 
L 947 331 
L 947 4331 
L 353 4331 
L 353 4666 
L 2559 4666 
Q 3259 4666 3668 4311 
Q 4078 3956 4078 3353 
Q 4078 2753 3668 2397 
Q 3259 2041 2559 2041 
L 1581 2041 
L 1581 331 
L 2303 331 
L 2303 0 
L 353 0 
z
" transform="scale(0.015625)"/>
      </defs>
      <use xlink:href="#DejaVuSerif-43"/>
      <use xlink:href="#DejaVuSerif-45" transform="translate(76.513672 0)"/>
      <use xlink:href="#DejaVuSerif-50" transform="translate(149.511719 0)"/>
     </g>
    </g>
    <g id="line2d_28">
     <path d="M 292.106063 48.254688 
L 302.106063 48.254688 
L 312.106063 48.254688 
" style="fill: none; stroke: #006400; stroke-width: 2; stroke-linecap: square"/>
     <g>
      <use xlink:href="#mf70414fd19" x="302.106063" y="48.254688" style="fill: #006400; stroke: #006400"/>
     </g>
    </g>
    <g id="text_16">
     <!-- CDP -->
     <g transform="translate(320.106063 51.754688) scale(0.1 -0.1)">
      <defs>
       <path id="DejaVuSerif-44" d="M 1581 331 
L 2163 331 
Q 3072 331 3558 850 
Q 4044 1369 4044 2338 
Q 4044 3306 3559 3818 
Q 3075 4331 2163 4331 
L 1581 4331 
L 1581 331 
z
M 353 0 
L 353 331 
L 947 331 
L 947 4331 
L 353 4331 
L 353 4666 
L 2209 4666 
Q 3416 4666 4089 4050 
Q 4763 3434 4763 2338 
Q 4763 1238 4088 619 
Q 3413 0 2209 0 
L 353 0 
z
" transform="scale(0.015625)"/>
      </defs>
      <use xlink:href="#DejaVuSerif-43"/>
      <use xlink:href="#DejaVuSerif-44" transform="translate(76.513672 0)"/>
      <use xlink:href="#DejaVuSerif-50" transform="translate(156.689453 0)"/>
     </g>
    </g>
   </g>
  </g>
 </g>
 <defs>
  <clipPath id="pab1e89b9ce">
   <rect x="52.77875" y="10.8" width="224.12125" height="159.6625"/>
  </clipPath>
 </defs>
</svg>
